G04 #@! TF.GenerationSoftware,KiCad,Pcbnew,8.0.5-8.0.5-0~ubuntu22.04.1*
G04 #@! TF.CreationDate,2024-09-10T12:36:33+10:00*
G04 #@! TF.ProjectId,Fire_Sytem_10,46697265-5f53-4797-9465-6d5f31302e6b,rev?*
G04 #@! TF.SameCoordinates,Original*
G04 #@! TF.FileFunction,Legend,Top*
G04 #@! TF.FilePolarity,Positive*
%FSLAX46Y46*%
G04 Gerber Fmt 4.6, Leading zero omitted, Abs format (unit mm)*
G04 Created by KiCad (PCBNEW 8.0.5-8.0.5-0~ubuntu22.04.1) date 2024-09-10 12:36:33*
%MOMM*%
%LPD*%
G01*
G04 APERTURE LIST*
%ADD10C,0.150000*%
%ADD11C,0.100000*%
%ADD12C,0.300000*%
%ADD13C,0.250000*%
%ADD14C,0.400000*%
%ADD15C,0.120000*%
%ADD16C,7.000000*%
%ADD17C,3.200000*%
%ADD18C,1.600000*%
%ADD19O,1.600000X1.600000*%
%ADD20R,1.700000X1.700000*%
%ADD21O,1.700000X1.700000*%
%ADD22C,1.700000*%
%ADD23R,1.800000X1.800000*%
%ADD24C,1.800000*%
G04 APERTURE END LIST*
D10*
X107369819Y-97187030D02*
X107369819Y-97663220D01*
X107369819Y-97663220D02*
X106369819Y-97663220D01*
X106846009Y-96853696D02*
X106846009Y-96520363D01*
X107369819Y-96377506D02*
X107369819Y-96853696D01*
X107369819Y-96853696D02*
X106369819Y-96853696D01*
X106369819Y-96853696D02*
X106369819Y-96377506D01*
X107369819Y-95948934D02*
X106369819Y-95948934D01*
X106369819Y-95948934D02*
X106369819Y-95710839D01*
X106369819Y-95710839D02*
X106417438Y-95567982D01*
X106417438Y-95567982D02*
X106512676Y-95472744D01*
X106512676Y-95472744D02*
X106607914Y-95425125D01*
X106607914Y-95425125D02*
X106798390Y-95377506D01*
X106798390Y-95377506D02*
X106941247Y-95377506D01*
X106941247Y-95377506D02*
X107131723Y-95425125D01*
X107131723Y-95425125D02*
X107226961Y-95472744D01*
X107226961Y-95472744D02*
X107322200Y-95567982D01*
X107322200Y-95567982D02*
X107369819Y-95710839D01*
X107369819Y-95710839D02*
X107369819Y-95948934D01*
X106417438Y-93663220D02*
X106369819Y-93758458D01*
X106369819Y-93758458D02*
X106369819Y-93901315D01*
X106369819Y-93901315D02*
X106417438Y-94044172D01*
X106417438Y-94044172D02*
X106512676Y-94139410D01*
X106512676Y-94139410D02*
X106607914Y-94187029D01*
X106607914Y-94187029D02*
X106798390Y-94234648D01*
X106798390Y-94234648D02*
X106941247Y-94234648D01*
X106941247Y-94234648D02*
X107131723Y-94187029D01*
X107131723Y-94187029D02*
X107226961Y-94139410D01*
X107226961Y-94139410D02*
X107322200Y-94044172D01*
X107322200Y-94044172D02*
X107369819Y-93901315D01*
X107369819Y-93901315D02*
X107369819Y-93806077D01*
X107369819Y-93806077D02*
X107322200Y-93663220D01*
X107322200Y-93663220D02*
X107274580Y-93615601D01*
X107274580Y-93615601D02*
X106941247Y-93615601D01*
X106941247Y-93615601D02*
X106941247Y-93806077D01*
X107369819Y-93187029D02*
X106703152Y-93187029D01*
X106893628Y-93187029D02*
X106798390Y-93139410D01*
X106798390Y-93139410D02*
X106750771Y-93091791D01*
X106750771Y-93091791D02*
X106703152Y-92996553D01*
X106703152Y-92996553D02*
X106703152Y-92901315D01*
X109550057Y-90238094D02*
X109502438Y-90190475D01*
X109502438Y-90190475D02*
X109454819Y-90095237D01*
X109454819Y-90095237D02*
X109454819Y-89857142D01*
X109454819Y-89857142D02*
X109502438Y-89761904D01*
X109502438Y-89761904D02*
X109550057Y-89714285D01*
X109550057Y-89714285D02*
X109645295Y-89666666D01*
X109645295Y-89666666D02*
X109740533Y-89666666D01*
X109740533Y-89666666D02*
X109883390Y-89714285D01*
X109883390Y-89714285D02*
X110454819Y-90285713D01*
X110454819Y-90285713D02*
X110454819Y-89666666D01*
X109550057Y-89285713D02*
X109502438Y-89238094D01*
X109502438Y-89238094D02*
X109454819Y-89142856D01*
X109454819Y-89142856D02*
X109454819Y-88904761D01*
X109454819Y-88904761D02*
X109502438Y-88809523D01*
X109502438Y-88809523D02*
X109550057Y-88761904D01*
X109550057Y-88761904D02*
X109645295Y-88714285D01*
X109645295Y-88714285D02*
X109740533Y-88714285D01*
X109740533Y-88714285D02*
X109883390Y-88761904D01*
X109883390Y-88761904D02*
X110454819Y-89333332D01*
X110454819Y-89333332D02*
X110454819Y-88714285D01*
X109454819Y-88095237D02*
X109454819Y-87999999D01*
X109454819Y-87999999D02*
X109502438Y-87904761D01*
X109502438Y-87904761D02*
X109550057Y-87857142D01*
X109550057Y-87857142D02*
X109645295Y-87809523D01*
X109645295Y-87809523D02*
X109835771Y-87761904D01*
X109835771Y-87761904D02*
X110073866Y-87761904D01*
X110073866Y-87761904D02*
X110264342Y-87809523D01*
X110264342Y-87809523D02*
X110359580Y-87857142D01*
X110359580Y-87857142D02*
X110407200Y-87904761D01*
X110407200Y-87904761D02*
X110454819Y-87999999D01*
X110454819Y-87999999D02*
X110454819Y-88095237D01*
X110454819Y-88095237D02*
X110407200Y-88190475D01*
X110407200Y-88190475D02*
X110359580Y-88238094D01*
X110359580Y-88238094D02*
X110264342Y-88285713D01*
X110264342Y-88285713D02*
X110073866Y-88333332D01*
X110073866Y-88333332D02*
X109835771Y-88333332D01*
X109835771Y-88333332D02*
X109645295Y-88285713D01*
X109645295Y-88285713D02*
X109550057Y-88238094D01*
X109550057Y-88238094D02*
X109502438Y-88190475D01*
X109502438Y-88190475D02*
X109454819Y-88095237D01*
D11*
X160827693Y-93372419D02*
X160256265Y-93372419D01*
X160541979Y-93372419D02*
X160541979Y-92372419D01*
X160541979Y-92372419D02*
X160446741Y-92515276D01*
X160446741Y-92515276D02*
X160351503Y-92610514D01*
X160351503Y-92610514D02*
X160256265Y-92658133D01*
D12*
X140197368Y-87800828D02*
X140197368Y-88800828D01*
X139840225Y-87229400D02*
X139483082Y-88300828D01*
X139483082Y-88300828D02*
X140411653Y-88300828D01*
X140911653Y-87443685D02*
X140983081Y-87372257D01*
X140983081Y-87372257D02*
X141125939Y-87300828D01*
X141125939Y-87300828D02*
X141483081Y-87300828D01*
X141483081Y-87300828D02*
X141625939Y-87372257D01*
X141625939Y-87372257D02*
X141697367Y-87443685D01*
X141697367Y-87443685D02*
X141768796Y-87586542D01*
X141768796Y-87586542D02*
X141768796Y-87729400D01*
X141768796Y-87729400D02*
X141697367Y-87943685D01*
X141697367Y-87943685D02*
X140840224Y-88800828D01*
X140840224Y-88800828D02*
X141768796Y-88800828D01*
D13*
X116307330Y-84864619D02*
X116926377Y-84864619D01*
X116926377Y-84864619D02*
X116593044Y-85245571D01*
X116593044Y-85245571D02*
X116735901Y-85245571D01*
X116735901Y-85245571D02*
X116831139Y-85293190D01*
X116831139Y-85293190D02*
X116878758Y-85340809D01*
X116878758Y-85340809D02*
X116926377Y-85436047D01*
X116926377Y-85436047D02*
X116926377Y-85674142D01*
X116926377Y-85674142D02*
X116878758Y-85769380D01*
X116878758Y-85769380D02*
X116831139Y-85817000D01*
X116831139Y-85817000D02*
X116735901Y-85864619D01*
X116735901Y-85864619D02*
X116450187Y-85864619D01*
X116450187Y-85864619D02*
X116354949Y-85817000D01*
X116354949Y-85817000D02*
X116307330Y-85769380D01*
X117354949Y-85769380D02*
X117402568Y-85817000D01*
X117402568Y-85817000D02*
X117354949Y-85864619D01*
X117354949Y-85864619D02*
X117307330Y-85817000D01*
X117307330Y-85817000D02*
X117354949Y-85769380D01*
X117354949Y-85769380D02*
X117354949Y-85864619D01*
X117735901Y-84864619D02*
X118354948Y-84864619D01*
X118354948Y-84864619D02*
X118021615Y-85245571D01*
X118021615Y-85245571D02*
X118164472Y-85245571D01*
X118164472Y-85245571D02*
X118259710Y-85293190D01*
X118259710Y-85293190D02*
X118307329Y-85340809D01*
X118307329Y-85340809D02*
X118354948Y-85436047D01*
X118354948Y-85436047D02*
X118354948Y-85674142D01*
X118354948Y-85674142D02*
X118307329Y-85769380D01*
X118307329Y-85769380D02*
X118259710Y-85817000D01*
X118259710Y-85817000D02*
X118164472Y-85864619D01*
X118164472Y-85864619D02*
X117878758Y-85864619D01*
X117878758Y-85864619D02*
X117783520Y-85817000D01*
X117783520Y-85817000D02*
X117735901Y-85769380D01*
D11*
X159946741Y-110300990D02*
X159851503Y-110253371D01*
X159851503Y-110253371D02*
X159803884Y-110205752D01*
X159803884Y-110205752D02*
X159756265Y-110110514D01*
X159756265Y-110110514D02*
X159756265Y-110062895D01*
X159756265Y-110062895D02*
X159803884Y-109967657D01*
X159803884Y-109967657D02*
X159851503Y-109920038D01*
X159851503Y-109920038D02*
X159946741Y-109872419D01*
X159946741Y-109872419D02*
X160137217Y-109872419D01*
X160137217Y-109872419D02*
X160232455Y-109920038D01*
X160232455Y-109920038D02*
X160280074Y-109967657D01*
X160280074Y-109967657D02*
X160327693Y-110062895D01*
X160327693Y-110062895D02*
X160327693Y-110110514D01*
X160327693Y-110110514D02*
X160280074Y-110205752D01*
X160280074Y-110205752D02*
X160232455Y-110253371D01*
X160232455Y-110253371D02*
X160137217Y-110300990D01*
X160137217Y-110300990D02*
X159946741Y-110300990D01*
X159946741Y-110300990D02*
X159851503Y-110348609D01*
X159851503Y-110348609D02*
X159803884Y-110396228D01*
X159803884Y-110396228D02*
X159756265Y-110491466D01*
X159756265Y-110491466D02*
X159756265Y-110681942D01*
X159756265Y-110681942D02*
X159803884Y-110777180D01*
X159803884Y-110777180D02*
X159851503Y-110824800D01*
X159851503Y-110824800D02*
X159946741Y-110872419D01*
X159946741Y-110872419D02*
X160137217Y-110872419D01*
X160137217Y-110872419D02*
X160232455Y-110824800D01*
X160232455Y-110824800D02*
X160280074Y-110777180D01*
X160280074Y-110777180D02*
X160327693Y-110681942D01*
X160327693Y-110681942D02*
X160327693Y-110491466D01*
X160327693Y-110491466D02*
X160280074Y-110396228D01*
X160280074Y-110396228D02*
X160232455Y-110348609D01*
X160232455Y-110348609D02*
X160137217Y-110300990D01*
D14*
X158286966Y-79329676D02*
X158096490Y-79234438D01*
X158096490Y-79234438D02*
X157810776Y-79234438D01*
X157810776Y-79234438D02*
X157525061Y-79329676D01*
X157525061Y-79329676D02*
X157334585Y-79520152D01*
X157334585Y-79520152D02*
X157239347Y-79710628D01*
X157239347Y-79710628D02*
X157144109Y-80091580D01*
X157144109Y-80091580D02*
X157144109Y-80377295D01*
X157144109Y-80377295D02*
X157239347Y-80758247D01*
X157239347Y-80758247D02*
X157334585Y-80948723D01*
X157334585Y-80948723D02*
X157525061Y-81139200D01*
X157525061Y-81139200D02*
X157810776Y-81234438D01*
X157810776Y-81234438D02*
X158001252Y-81234438D01*
X158001252Y-81234438D02*
X158286966Y-81139200D01*
X158286966Y-81139200D02*
X158382204Y-81043961D01*
X158382204Y-81043961D02*
X158382204Y-80377295D01*
X158382204Y-80377295D02*
X158001252Y-80377295D01*
X159239347Y-81234438D02*
X159239347Y-79234438D01*
X159239347Y-79234438D02*
X160382204Y-81234438D01*
X160382204Y-81234438D02*
X160382204Y-79234438D01*
X161334585Y-81234438D02*
X161334585Y-79234438D01*
X161334585Y-79234438D02*
X161810775Y-79234438D01*
X161810775Y-79234438D02*
X162096490Y-79329676D01*
X162096490Y-79329676D02*
X162286966Y-79520152D01*
X162286966Y-79520152D02*
X162382204Y-79710628D01*
X162382204Y-79710628D02*
X162477442Y-80091580D01*
X162477442Y-80091580D02*
X162477442Y-80377295D01*
X162477442Y-80377295D02*
X162382204Y-80758247D01*
X162382204Y-80758247D02*
X162286966Y-80948723D01*
X162286966Y-80948723D02*
X162096490Y-81139200D01*
X162096490Y-81139200D02*
X161810775Y-81234438D01*
X161810775Y-81234438D02*
X161334585Y-81234438D01*
D13*
X141188282Y-74337476D02*
X140997806Y-74242238D01*
X140997806Y-74242238D02*
X140712092Y-74242238D01*
X140712092Y-74242238D02*
X140426377Y-74337476D01*
X140426377Y-74337476D02*
X140235901Y-74527952D01*
X140235901Y-74527952D02*
X140140663Y-74718428D01*
X140140663Y-74718428D02*
X140045425Y-75099380D01*
X140045425Y-75099380D02*
X140045425Y-75385095D01*
X140045425Y-75385095D02*
X140140663Y-75766047D01*
X140140663Y-75766047D02*
X140235901Y-75956523D01*
X140235901Y-75956523D02*
X140426377Y-76147000D01*
X140426377Y-76147000D02*
X140712092Y-76242238D01*
X140712092Y-76242238D02*
X140902568Y-76242238D01*
X140902568Y-76242238D02*
X141188282Y-76147000D01*
X141188282Y-76147000D02*
X141283520Y-76051761D01*
X141283520Y-76051761D02*
X141283520Y-75385095D01*
X141283520Y-75385095D02*
X140902568Y-75385095D01*
D10*
X108809523Y-109954819D02*
X108238095Y-109954819D01*
X108523809Y-109954819D02*
X108523809Y-108954819D01*
X108523809Y-108954819D02*
X108428571Y-109097676D01*
X108428571Y-109097676D02*
X108333333Y-109192914D01*
X108333333Y-109192914D02*
X108238095Y-109240533D01*
X109428571Y-108954819D02*
X109523809Y-108954819D01*
X109523809Y-108954819D02*
X109619047Y-109002438D01*
X109619047Y-109002438D02*
X109666666Y-109050057D01*
X109666666Y-109050057D02*
X109714285Y-109145295D01*
X109714285Y-109145295D02*
X109761904Y-109335771D01*
X109761904Y-109335771D02*
X109761904Y-109573866D01*
X109761904Y-109573866D02*
X109714285Y-109764342D01*
X109714285Y-109764342D02*
X109666666Y-109859580D01*
X109666666Y-109859580D02*
X109619047Y-109907200D01*
X109619047Y-109907200D02*
X109523809Y-109954819D01*
X109523809Y-109954819D02*
X109428571Y-109954819D01*
X109428571Y-109954819D02*
X109333333Y-109907200D01*
X109333333Y-109907200D02*
X109285714Y-109859580D01*
X109285714Y-109859580D02*
X109238095Y-109764342D01*
X109238095Y-109764342D02*
X109190476Y-109573866D01*
X109190476Y-109573866D02*
X109190476Y-109335771D01*
X109190476Y-109335771D02*
X109238095Y-109145295D01*
X109238095Y-109145295D02*
X109285714Y-109050057D01*
X109285714Y-109050057D02*
X109333333Y-109002438D01*
X109333333Y-109002438D02*
X109428571Y-108954819D01*
X110190476Y-109954819D02*
X110190476Y-108954819D01*
X110761904Y-109954819D02*
X110333333Y-109383390D01*
X110761904Y-108954819D02*
X110190476Y-109526247D01*
D14*
X156239347Y-116972533D02*
X157763157Y-116972533D01*
X157001252Y-117734438D02*
X157001252Y-116210628D01*
X159667918Y-115734438D02*
X158715537Y-115734438D01*
X158715537Y-115734438D02*
X158620299Y-116686819D01*
X158620299Y-116686819D02*
X158715537Y-116591580D01*
X158715537Y-116591580D02*
X158906013Y-116496342D01*
X158906013Y-116496342D02*
X159382204Y-116496342D01*
X159382204Y-116496342D02*
X159572680Y-116591580D01*
X159572680Y-116591580D02*
X159667918Y-116686819D01*
X159667918Y-116686819D02*
X159763156Y-116877295D01*
X159763156Y-116877295D02*
X159763156Y-117353485D01*
X159763156Y-117353485D02*
X159667918Y-117543961D01*
X159667918Y-117543961D02*
X159572680Y-117639200D01*
X159572680Y-117639200D02*
X159382204Y-117734438D01*
X159382204Y-117734438D02*
X158906013Y-117734438D01*
X158906013Y-117734438D02*
X158715537Y-117639200D01*
X158715537Y-117639200D02*
X158620299Y-117543961D01*
X160334585Y-115734438D02*
X161001251Y-117734438D01*
X161001251Y-117734438D02*
X161667918Y-115734438D01*
D10*
X124170112Y-134846009D02*
X124312969Y-134893628D01*
X124312969Y-134893628D02*
X124360588Y-134941247D01*
X124360588Y-134941247D02*
X124408207Y-135036485D01*
X124408207Y-135036485D02*
X124408207Y-135179342D01*
X124408207Y-135179342D02*
X124360588Y-135274580D01*
X124360588Y-135274580D02*
X124312969Y-135322200D01*
X124312969Y-135322200D02*
X124217731Y-135369819D01*
X124217731Y-135369819D02*
X123836779Y-135369819D01*
X123836779Y-135369819D02*
X123836779Y-134369819D01*
X123836779Y-134369819D02*
X124170112Y-134369819D01*
X124170112Y-134369819D02*
X124265350Y-134417438D01*
X124265350Y-134417438D02*
X124312969Y-134465057D01*
X124312969Y-134465057D02*
X124360588Y-134560295D01*
X124360588Y-134560295D02*
X124360588Y-134655533D01*
X124360588Y-134655533D02*
X124312969Y-134750771D01*
X124312969Y-134750771D02*
X124265350Y-134798390D01*
X124265350Y-134798390D02*
X124170112Y-134846009D01*
X124170112Y-134846009D02*
X123836779Y-134846009D01*
X125265350Y-134703152D02*
X125265350Y-135369819D01*
X124836779Y-134703152D02*
X124836779Y-135226961D01*
X124836779Y-135226961D02*
X124884398Y-135322200D01*
X124884398Y-135322200D02*
X124979636Y-135369819D01*
X124979636Y-135369819D02*
X125122493Y-135369819D01*
X125122493Y-135369819D02*
X125217731Y-135322200D01*
X125217731Y-135322200D02*
X125265350Y-135274580D01*
X125693922Y-135322200D02*
X125789160Y-135369819D01*
X125789160Y-135369819D02*
X125979636Y-135369819D01*
X125979636Y-135369819D02*
X126074874Y-135322200D01*
X126074874Y-135322200D02*
X126122493Y-135226961D01*
X126122493Y-135226961D02*
X126122493Y-135179342D01*
X126122493Y-135179342D02*
X126074874Y-135084104D01*
X126074874Y-135084104D02*
X125979636Y-135036485D01*
X125979636Y-135036485D02*
X125836779Y-135036485D01*
X125836779Y-135036485D02*
X125741541Y-134988866D01*
X125741541Y-134988866D02*
X125693922Y-134893628D01*
X125693922Y-134893628D02*
X125693922Y-134846009D01*
X125693922Y-134846009D02*
X125741541Y-134750771D01*
X125741541Y-134750771D02*
X125836779Y-134703152D01*
X125836779Y-134703152D02*
X125979636Y-134703152D01*
X125979636Y-134703152D02*
X126074874Y-134750771D01*
X126551065Y-135369819D02*
X126551065Y-134369819D01*
X126979636Y-135369819D02*
X126979636Y-134846009D01*
X126979636Y-134846009D02*
X126932017Y-134750771D01*
X126932017Y-134750771D02*
X126836779Y-134703152D01*
X126836779Y-134703152D02*
X126693922Y-134703152D01*
X126693922Y-134703152D02*
X126598684Y-134750771D01*
X126598684Y-134750771D02*
X126551065Y-134798390D01*
X127312970Y-134703152D02*
X127693922Y-134703152D01*
X127455827Y-135369819D02*
X127455827Y-134512676D01*
X127455827Y-134512676D02*
X127503446Y-134417438D01*
X127503446Y-134417438D02*
X127598684Y-134369819D01*
X127598684Y-134369819D02*
X127693922Y-134369819D01*
X128027256Y-135369819D02*
X128027256Y-134703152D01*
X128027256Y-134369819D02*
X127979637Y-134417438D01*
X127979637Y-134417438D02*
X128027256Y-134465057D01*
X128027256Y-134465057D02*
X128074875Y-134417438D01*
X128074875Y-134417438D02*
X128027256Y-134369819D01*
X128027256Y-134369819D02*
X128027256Y-134465057D01*
X128503446Y-135369819D02*
X128503446Y-134703152D01*
X128503446Y-134893628D02*
X128551065Y-134798390D01*
X128551065Y-134798390D02*
X128598684Y-134750771D01*
X128598684Y-134750771D02*
X128693922Y-134703152D01*
X128693922Y-134703152D02*
X128789160Y-134703152D01*
X129503446Y-135322200D02*
X129408208Y-135369819D01*
X129408208Y-135369819D02*
X129217732Y-135369819D01*
X129217732Y-135369819D02*
X129122494Y-135322200D01*
X129122494Y-135322200D02*
X129074875Y-135226961D01*
X129074875Y-135226961D02*
X129074875Y-134846009D01*
X129074875Y-134846009D02*
X129122494Y-134750771D01*
X129122494Y-134750771D02*
X129217732Y-134703152D01*
X129217732Y-134703152D02*
X129408208Y-134703152D01*
X129408208Y-134703152D02*
X129503446Y-134750771D01*
X129503446Y-134750771D02*
X129551065Y-134846009D01*
X129551065Y-134846009D02*
X129551065Y-134941247D01*
X129551065Y-134941247D02*
X129074875Y-135036485D01*
X130741542Y-135369819D02*
X130741542Y-134369819D01*
X130741542Y-134369819D02*
X131122494Y-134369819D01*
X131122494Y-134369819D02*
X131217732Y-134417438D01*
X131217732Y-134417438D02*
X131265351Y-134465057D01*
X131265351Y-134465057D02*
X131312970Y-134560295D01*
X131312970Y-134560295D02*
X131312970Y-134703152D01*
X131312970Y-134703152D02*
X131265351Y-134798390D01*
X131265351Y-134798390D02*
X131217732Y-134846009D01*
X131217732Y-134846009D02*
X131122494Y-134893628D01*
X131122494Y-134893628D02*
X130741542Y-134893628D01*
X131741542Y-135369819D02*
X131741542Y-134703152D01*
X131741542Y-134893628D02*
X131789161Y-134798390D01*
X131789161Y-134798390D02*
X131836780Y-134750771D01*
X131836780Y-134750771D02*
X131932018Y-134703152D01*
X131932018Y-134703152D02*
X132027256Y-134703152D01*
X132503447Y-135369819D02*
X132408209Y-135322200D01*
X132408209Y-135322200D02*
X132360590Y-135274580D01*
X132360590Y-135274580D02*
X132312971Y-135179342D01*
X132312971Y-135179342D02*
X132312971Y-134893628D01*
X132312971Y-134893628D02*
X132360590Y-134798390D01*
X132360590Y-134798390D02*
X132408209Y-134750771D01*
X132408209Y-134750771D02*
X132503447Y-134703152D01*
X132503447Y-134703152D02*
X132646304Y-134703152D01*
X132646304Y-134703152D02*
X132741542Y-134750771D01*
X132741542Y-134750771D02*
X132789161Y-134798390D01*
X132789161Y-134798390D02*
X132836780Y-134893628D01*
X132836780Y-134893628D02*
X132836780Y-135179342D01*
X132836780Y-135179342D02*
X132789161Y-135274580D01*
X132789161Y-135274580D02*
X132741542Y-135322200D01*
X132741542Y-135322200D02*
X132646304Y-135369819D01*
X132646304Y-135369819D02*
X132503447Y-135369819D01*
X133122495Y-134703152D02*
X133503447Y-134703152D01*
X133265352Y-134369819D02*
X133265352Y-135226961D01*
X133265352Y-135226961D02*
X133312971Y-135322200D01*
X133312971Y-135322200D02*
X133408209Y-135369819D01*
X133408209Y-135369819D02*
X133503447Y-135369819D01*
X134217733Y-135322200D02*
X134122495Y-135369819D01*
X134122495Y-135369819D02*
X133932019Y-135369819D01*
X133932019Y-135369819D02*
X133836781Y-135322200D01*
X133836781Y-135322200D02*
X133789162Y-135226961D01*
X133789162Y-135226961D02*
X133789162Y-134846009D01*
X133789162Y-134846009D02*
X133836781Y-134750771D01*
X133836781Y-134750771D02*
X133932019Y-134703152D01*
X133932019Y-134703152D02*
X134122495Y-134703152D01*
X134122495Y-134703152D02*
X134217733Y-134750771D01*
X134217733Y-134750771D02*
X134265352Y-134846009D01*
X134265352Y-134846009D02*
X134265352Y-134941247D01*
X134265352Y-134941247D02*
X133789162Y-135036485D01*
X135122495Y-135322200D02*
X135027257Y-135369819D01*
X135027257Y-135369819D02*
X134836781Y-135369819D01*
X134836781Y-135369819D02*
X134741543Y-135322200D01*
X134741543Y-135322200D02*
X134693924Y-135274580D01*
X134693924Y-135274580D02*
X134646305Y-135179342D01*
X134646305Y-135179342D02*
X134646305Y-134893628D01*
X134646305Y-134893628D02*
X134693924Y-134798390D01*
X134693924Y-134798390D02*
X134741543Y-134750771D01*
X134741543Y-134750771D02*
X134836781Y-134703152D01*
X134836781Y-134703152D02*
X135027257Y-134703152D01*
X135027257Y-134703152D02*
X135122495Y-134750771D01*
X135408210Y-134703152D02*
X135789162Y-134703152D01*
X135551067Y-134369819D02*
X135551067Y-135226961D01*
X135551067Y-135226961D02*
X135598686Y-135322200D01*
X135598686Y-135322200D02*
X135693924Y-135369819D01*
X135693924Y-135369819D02*
X135789162Y-135369819D01*
X136122496Y-135369819D02*
X136122496Y-134703152D01*
X136122496Y-134369819D02*
X136074877Y-134417438D01*
X136074877Y-134417438D02*
X136122496Y-134465057D01*
X136122496Y-134465057D02*
X136170115Y-134417438D01*
X136170115Y-134417438D02*
X136122496Y-134369819D01*
X136122496Y-134369819D02*
X136122496Y-134465057D01*
X136741543Y-135369819D02*
X136646305Y-135322200D01*
X136646305Y-135322200D02*
X136598686Y-135274580D01*
X136598686Y-135274580D02*
X136551067Y-135179342D01*
X136551067Y-135179342D02*
X136551067Y-134893628D01*
X136551067Y-134893628D02*
X136598686Y-134798390D01*
X136598686Y-134798390D02*
X136646305Y-134750771D01*
X136646305Y-134750771D02*
X136741543Y-134703152D01*
X136741543Y-134703152D02*
X136884400Y-134703152D01*
X136884400Y-134703152D02*
X136979638Y-134750771D01*
X136979638Y-134750771D02*
X137027257Y-134798390D01*
X137027257Y-134798390D02*
X137074876Y-134893628D01*
X137074876Y-134893628D02*
X137074876Y-135179342D01*
X137074876Y-135179342D02*
X137027257Y-135274580D01*
X137027257Y-135274580D02*
X136979638Y-135322200D01*
X136979638Y-135322200D02*
X136884400Y-135369819D01*
X136884400Y-135369819D02*
X136741543Y-135369819D01*
X137503448Y-134703152D02*
X137503448Y-135369819D01*
X137503448Y-134798390D02*
X137551067Y-134750771D01*
X137551067Y-134750771D02*
X137646305Y-134703152D01*
X137646305Y-134703152D02*
X137789162Y-134703152D01*
X137789162Y-134703152D02*
X137884400Y-134750771D01*
X137884400Y-134750771D02*
X137932019Y-134846009D01*
X137932019Y-134846009D02*
X137932019Y-135369819D01*
X139122496Y-135322200D02*
X139265353Y-135369819D01*
X139265353Y-135369819D02*
X139503448Y-135369819D01*
X139503448Y-135369819D02*
X139598686Y-135322200D01*
X139598686Y-135322200D02*
X139646305Y-135274580D01*
X139646305Y-135274580D02*
X139693924Y-135179342D01*
X139693924Y-135179342D02*
X139693924Y-135084104D01*
X139693924Y-135084104D02*
X139646305Y-134988866D01*
X139646305Y-134988866D02*
X139598686Y-134941247D01*
X139598686Y-134941247D02*
X139503448Y-134893628D01*
X139503448Y-134893628D02*
X139312972Y-134846009D01*
X139312972Y-134846009D02*
X139217734Y-134798390D01*
X139217734Y-134798390D02*
X139170115Y-134750771D01*
X139170115Y-134750771D02*
X139122496Y-134655533D01*
X139122496Y-134655533D02*
X139122496Y-134560295D01*
X139122496Y-134560295D02*
X139170115Y-134465057D01*
X139170115Y-134465057D02*
X139217734Y-134417438D01*
X139217734Y-134417438D02*
X139312972Y-134369819D01*
X139312972Y-134369819D02*
X139551067Y-134369819D01*
X139551067Y-134369819D02*
X139693924Y-134417438D01*
X140027258Y-134703152D02*
X140265353Y-135369819D01*
X140503448Y-134703152D02*
X140265353Y-135369819D01*
X140265353Y-135369819D02*
X140170115Y-135607914D01*
X140170115Y-135607914D02*
X140122496Y-135655533D01*
X140122496Y-135655533D02*
X140027258Y-135703152D01*
X140836782Y-135322200D02*
X140932020Y-135369819D01*
X140932020Y-135369819D02*
X141122496Y-135369819D01*
X141122496Y-135369819D02*
X141217734Y-135322200D01*
X141217734Y-135322200D02*
X141265353Y-135226961D01*
X141265353Y-135226961D02*
X141265353Y-135179342D01*
X141265353Y-135179342D02*
X141217734Y-135084104D01*
X141217734Y-135084104D02*
X141122496Y-135036485D01*
X141122496Y-135036485D02*
X140979639Y-135036485D01*
X140979639Y-135036485D02*
X140884401Y-134988866D01*
X140884401Y-134988866D02*
X140836782Y-134893628D01*
X140836782Y-134893628D02*
X140836782Y-134846009D01*
X140836782Y-134846009D02*
X140884401Y-134750771D01*
X140884401Y-134750771D02*
X140979639Y-134703152D01*
X140979639Y-134703152D02*
X141122496Y-134703152D01*
X141122496Y-134703152D02*
X141217734Y-134750771D01*
X141551068Y-134703152D02*
X141932020Y-134703152D01*
X141693925Y-134369819D02*
X141693925Y-135226961D01*
X141693925Y-135226961D02*
X141741544Y-135322200D01*
X141741544Y-135322200D02*
X141836782Y-135369819D01*
X141836782Y-135369819D02*
X141932020Y-135369819D01*
X142646306Y-135322200D02*
X142551068Y-135369819D01*
X142551068Y-135369819D02*
X142360592Y-135369819D01*
X142360592Y-135369819D02*
X142265354Y-135322200D01*
X142265354Y-135322200D02*
X142217735Y-135226961D01*
X142217735Y-135226961D02*
X142217735Y-134846009D01*
X142217735Y-134846009D02*
X142265354Y-134750771D01*
X142265354Y-134750771D02*
X142360592Y-134703152D01*
X142360592Y-134703152D02*
X142551068Y-134703152D01*
X142551068Y-134703152D02*
X142646306Y-134750771D01*
X142646306Y-134750771D02*
X142693925Y-134846009D01*
X142693925Y-134846009D02*
X142693925Y-134941247D01*
X142693925Y-134941247D02*
X142217735Y-135036485D01*
X143122497Y-135369819D02*
X143122497Y-134703152D01*
X143122497Y-134798390D02*
X143170116Y-134750771D01*
X143170116Y-134750771D02*
X143265354Y-134703152D01*
X143265354Y-134703152D02*
X143408211Y-134703152D01*
X143408211Y-134703152D02*
X143503449Y-134750771D01*
X143503449Y-134750771D02*
X143551068Y-134846009D01*
X143551068Y-134846009D02*
X143551068Y-135369819D01*
X143551068Y-134846009D02*
X143598687Y-134750771D01*
X143598687Y-134750771D02*
X143693925Y-134703152D01*
X143693925Y-134703152D02*
X143836782Y-134703152D01*
X143836782Y-134703152D02*
X143932021Y-134750771D01*
X143932021Y-134750771D02*
X143979640Y-134846009D01*
X143979640Y-134846009D02*
X143979640Y-135369819D01*
X145074878Y-134369819D02*
X145408211Y-135369819D01*
X145408211Y-135369819D02*
X145741544Y-134369819D01*
X145979640Y-134369819D02*
X146598687Y-134369819D01*
X146598687Y-134369819D02*
X146265354Y-134750771D01*
X146265354Y-134750771D02*
X146408211Y-134750771D01*
X146408211Y-134750771D02*
X146503449Y-134798390D01*
X146503449Y-134798390D02*
X146551068Y-134846009D01*
X146551068Y-134846009D02*
X146598687Y-134941247D01*
X146598687Y-134941247D02*
X146598687Y-135179342D01*
X146598687Y-135179342D02*
X146551068Y-135274580D01*
X146551068Y-135274580D02*
X146503449Y-135322200D01*
X146503449Y-135322200D02*
X146408211Y-135369819D01*
X146408211Y-135369819D02*
X146122497Y-135369819D01*
X146122497Y-135369819D02*
X146027259Y-135322200D01*
X146027259Y-135322200D02*
X145979640Y-135274580D01*
X147027259Y-135274580D02*
X147074878Y-135322200D01*
X147074878Y-135322200D02*
X147027259Y-135369819D01*
X147027259Y-135369819D02*
X146979640Y-135322200D01*
X146979640Y-135322200D02*
X147027259Y-135274580D01*
X147027259Y-135274580D02*
X147027259Y-135369819D01*
X147693925Y-134369819D02*
X147789163Y-134369819D01*
X147789163Y-134369819D02*
X147884401Y-134417438D01*
X147884401Y-134417438D02*
X147932020Y-134465057D01*
X147932020Y-134465057D02*
X147979639Y-134560295D01*
X147979639Y-134560295D02*
X148027258Y-134750771D01*
X148027258Y-134750771D02*
X148027258Y-134988866D01*
X148027258Y-134988866D02*
X147979639Y-135179342D01*
X147979639Y-135179342D02*
X147932020Y-135274580D01*
X147932020Y-135274580D02*
X147884401Y-135322200D01*
X147884401Y-135322200D02*
X147789163Y-135369819D01*
X147789163Y-135369819D02*
X147693925Y-135369819D01*
X147693925Y-135369819D02*
X147598687Y-135322200D01*
X147598687Y-135322200D02*
X147551068Y-135274580D01*
X147551068Y-135274580D02*
X147503449Y-135179342D01*
X147503449Y-135179342D02*
X147455830Y-134988866D01*
X147455830Y-134988866D02*
X147455830Y-134750771D01*
X147455830Y-134750771D02*
X147503449Y-134560295D01*
X147503449Y-134560295D02*
X147551068Y-134465057D01*
X147551068Y-134465057D02*
X147598687Y-134417438D01*
X147598687Y-134417438D02*
X147693925Y-134369819D01*
D12*
X139411653Y-94800828D02*
X140340225Y-94800828D01*
X140340225Y-94800828D02*
X139840225Y-95372257D01*
X139840225Y-95372257D02*
X140054510Y-95372257D01*
X140054510Y-95372257D02*
X140197368Y-95443685D01*
X140197368Y-95443685D02*
X140268796Y-95515114D01*
X140268796Y-95515114D02*
X140340225Y-95657971D01*
X140340225Y-95657971D02*
X140340225Y-96015114D01*
X140340225Y-96015114D02*
X140268796Y-96157971D01*
X140268796Y-96157971D02*
X140197368Y-96229400D01*
X140197368Y-96229400D02*
X140054510Y-96300828D01*
X140054510Y-96300828D02*
X139625939Y-96300828D01*
X139625939Y-96300828D02*
X139483082Y-96229400D01*
X139483082Y-96229400D02*
X139411653Y-96157971D01*
X141054510Y-96300828D02*
X141340224Y-96300828D01*
X141340224Y-96300828D02*
X141483081Y-96229400D01*
X141483081Y-96229400D02*
X141554510Y-96157971D01*
X141554510Y-96157971D02*
X141697367Y-95943685D01*
X141697367Y-95943685D02*
X141768796Y-95657971D01*
X141768796Y-95657971D02*
X141768796Y-95086542D01*
X141768796Y-95086542D02*
X141697367Y-94943685D01*
X141697367Y-94943685D02*
X141625939Y-94872257D01*
X141625939Y-94872257D02*
X141483081Y-94800828D01*
X141483081Y-94800828D02*
X141197367Y-94800828D01*
X141197367Y-94800828D02*
X141054510Y-94872257D01*
X141054510Y-94872257D02*
X140983081Y-94943685D01*
X140983081Y-94943685D02*
X140911653Y-95086542D01*
X140911653Y-95086542D02*
X140911653Y-95443685D01*
X140911653Y-95443685D02*
X140983081Y-95586542D01*
X140983081Y-95586542D02*
X141054510Y-95657971D01*
X141054510Y-95657971D02*
X141197367Y-95729400D01*
X141197367Y-95729400D02*
X141483081Y-95729400D01*
X141483081Y-95729400D02*
X141625939Y-95657971D01*
X141625939Y-95657971D02*
X141697367Y-95586542D01*
X141697367Y-95586542D02*
X141768796Y-95443685D01*
D13*
X109926377Y-84912238D02*
X109831139Y-84864619D01*
X109831139Y-84864619D02*
X109688282Y-84864619D01*
X109688282Y-84864619D02*
X109545425Y-84912238D01*
X109545425Y-84912238D02*
X109450187Y-85007476D01*
X109450187Y-85007476D02*
X109402568Y-85102714D01*
X109402568Y-85102714D02*
X109354949Y-85293190D01*
X109354949Y-85293190D02*
X109354949Y-85436047D01*
X109354949Y-85436047D02*
X109402568Y-85626523D01*
X109402568Y-85626523D02*
X109450187Y-85721761D01*
X109450187Y-85721761D02*
X109545425Y-85817000D01*
X109545425Y-85817000D02*
X109688282Y-85864619D01*
X109688282Y-85864619D02*
X109783520Y-85864619D01*
X109783520Y-85864619D02*
X109926377Y-85817000D01*
X109926377Y-85817000D02*
X109973996Y-85769380D01*
X109973996Y-85769380D02*
X109973996Y-85436047D01*
X109973996Y-85436047D02*
X109783520Y-85436047D01*
D12*
X140197368Y-92800828D02*
X140197368Y-93800828D01*
X139840225Y-92229400D02*
X139483082Y-93300828D01*
X139483082Y-93300828D02*
X140411653Y-93300828D01*
X141268796Y-92300828D02*
X141411653Y-92300828D01*
X141411653Y-92300828D02*
X141554510Y-92372257D01*
X141554510Y-92372257D02*
X141625939Y-92443685D01*
X141625939Y-92443685D02*
X141697367Y-92586542D01*
X141697367Y-92586542D02*
X141768796Y-92872257D01*
X141768796Y-92872257D02*
X141768796Y-93229400D01*
X141768796Y-93229400D02*
X141697367Y-93515114D01*
X141697367Y-93515114D02*
X141625939Y-93657971D01*
X141625939Y-93657971D02*
X141554510Y-93729400D01*
X141554510Y-93729400D02*
X141411653Y-93800828D01*
X141411653Y-93800828D02*
X141268796Y-93800828D01*
X141268796Y-93800828D02*
X141125939Y-93729400D01*
X141125939Y-93729400D02*
X141054510Y-93657971D01*
X141054510Y-93657971D02*
X140983081Y-93515114D01*
X140983081Y-93515114D02*
X140911653Y-93229400D01*
X140911653Y-93229400D02*
X140911653Y-92872257D01*
X140911653Y-92872257D02*
X140983081Y-92586542D01*
X140983081Y-92586542D02*
X141054510Y-92443685D01*
X141054510Y-92443685D02*
X141125939Y-92372257D01*
X141125939Y-92372257D02*
X141268796Y-92300828D01*
D10*
X107693922Y-117869819D02*
X108265350Y-117869819D01*
X107979636Y-118869819D02*
X107979636Y-117869819D01*
X108741541Y-118869819D02*
X108646303Y-118822200D01*
X108646303Y-118822200D02*
X108598684Y-118774580D01*
X108598684Y-118774580D02*
X108551065Y-118679342D01*
X108551065Y-118679342D02*
X108551065Y-118393628D01*
X108551065Y-118393628D02*
X108598684Y-118298390D01*
X108598684Y-118298390D02*
X108646303Y-118250771D01*
X108646303Y-118250771D02*
X108741541Y-118203152D01*
X108741541Y-118203152D02*
X108884398Y-118203152D01*
X108884398Y-118203152D02*
X108979636Y-118250771D01*
X108979636Y-118250771D02*
X109027255Y-118298390D01*
X109027255Y-118298390D02*
X109074874Y-118393628D01*
X109074874Y-118393628D02*
X109074874Y-118679342D01*
X109074874Y-118679342D02*
X109027255Y-118774580D01*
X109027255Y-118774580D02*
X108979636Y-118822200D01*
X108979636Y-118822200D02*
X108884398Y-118869819D01*
X108884398Y-118869819D02*
X108741541Y-118869819D01*
X109932017Y-118203152D02*
X109932017Y-118869819D01*
X109503446Y-118203152D02*
X109503446Y-118726961D01*
X109503446Y-118726961D02*
X109551065Y-118822200D01*
X109551065Y-118822200D02*
X109646303Y-118869819D01*
X109646303Y-118869819D02*
X109789160Y-118869819D01*
X109789160Y-118869819D02*
X109884398Y-118822200D01*
X109884398Y-118822200D02*
X109932017Y-118774580D01*
X110836779Y-118822200D02*
X110741541Y-118869819D01*
X110741541Y-118869819D02*
X110551065Y-118869819D01*
X110551065Y-118869819D02*
X110455827Y-118822200D01*
X110455827Y-118822200D02*
X110408208Y-118774580D01*
X110408208Y-118774580D02*
X110360589Y-118679342D01*
X110360589Y-118679342D02*
X110360589Y-118393628D01*
X110360589Y-118393628D02*
X110408208Y-118298390D01*
X110408208Y-118298390D02*
X110455827Y-118250771D01*
X110455827Y-118250771D02*
X110551065Y-118203152D01*
X110551065Y-118203152D02*
X110741541Y-118203152D01*
X110741541Y-118203152D02*
X110836779Y-118250771D01*
X111265351Y-118869819D02*
X111265351Y-117869819D01*
X111693922Y-118869819D02*
X111693922Y-118346009D01*
X111693922Y-118346009D02*
X111646303Y-118250771D01*
X111646303Y-118250771D02*
X111551065Y-118203152D01*
X111551065Y-118203152D02*
X111408208Y-118203152D01*
X111408208Y-118203152D02*
X111312970Y-118250771D01*
X111312970Y-118250771D02*
X111265351Y-118298390D01*
X112884399Y-118822200D02*
X112979637Y-118869819D01*
X112979637Y-118869819D02*
X113170113Y-118869819D01*
X113170113Y-118869819D02*
X113265351Y-118822200D01*
X113265351Y-118822200D02*
X113312970Y-118726961D01*
X113312970Y-118726961D02*
X113312970Y-118679342D01*
X113312970Y-118679342D02*
X113265351Y-118584104D01*
X113265351Y-118584104D02*
X113170113Y-118536485D01*
X113170113Y-118536485D02*
X113027256Y-118536485D01*
X113027256Y-118536485D02*
X112932018Y-118488866D01*
X112932018Y-118488866D02*
X112884399Y-118393628D01*
X112884399Y-118393628D02*
X112884399Y-118346009D01*
X112884399Y-118346009D02*
X112932018Y-118250771D01*
X112932018Y-118250771D02*
X113027256Y-118203152D01*
X113027256Y-118203152D02*
X113170113Y-118203152D01*
X113170113Y-118203152D02*
X113265351Y-118250771D01*
X113646304Y-118203152D02*
X113836780Y-118869819D01*
X113836780Y-118869819D02*
X114027256Y-118393628D01*
X114027256Y-118393628D02*
X114217732Y-118869819D01*
X114217732Y-118869819D02*
X114408208Y-118203152D01*
D12*
X140197368Y-90300828D02*
X140197368Y-91300828D01*
X139840225Y-89729400D02*
X139483082Y-90800828D01*
X139483082Y-90800828D02*
X140411653Y-90800828D01*
X141768796Y-91300828D02*
X140911653Y-91300828D01*
X141340224Y-91300828D02*
X141340224Y-89800828D01*
X141340224Y-89800828D02*
X141197367Y-90015114D01*
X141197367Y-90015114D02*
X141054510Y-90157971D01*
X141054510Y-90157971D02*
X140911653Y-90229400D01*
D10*
X106417438Y-107139411D02*
X106369819Y-107234649D01*
X106369819Y-107234649D02*
X106369819Y-107377506D01*
X106369819Y-107377506D02*
X106417438Y-107520363D01*
X106417438Y-107520363D02*
X106512676Y-107615601D01*
X106512676Y-107615601D02*
X106607914Y-107663220D01*
X106607914Y-107663220D02*
X106798390Y-107710839D01*
X106798390Y-107710839D02*
X106941247Y-107710839D01*
X106941247Y-107710839D02*
X107131723Y-107663220D01*
X107131723Y-107663220D02*
X107226961Y-107615601D01*
X107226961Y-107615601D02*
X107322200Y-107520363D01*
X107322200Y-107520363D02*
X107369819Y-107377506D01*
X107369819Y-107377506D02*
X107369819Y-107282268D01*
X107369819Y-107282268D02*
X107322200Y-107139411D01*
X107322200Y-107139411D02*
X107274580Y-107091792D01*
X107274580Y-107091792D02*
X106941247Y-107091792D01*
X106941247Y-107091792D02*
X106941247Y-107282268D01*
X107369819Y-106234649D02*
X106846009Y-106234649D01*
X106846009Y-106234649D02*
X106750771Y-106282268D01*
X106750771Y-106282268D02*
X106703152Y-106377506D01*
X106703152Y-106377506D02*
X106703152Y-106567982D01*
X106703152Y-106567982D02*
X106750771Y-106663220D01*
X107322200Y-106234649D02*
X107369819Y-106329887D01*
X107369819Y-106329887D02*
X107369819Y-106567982D01*
X107369819Y-106567982D02*
X107322200Y-106663220D01*
X107322200Y-106663220D02*
X107226961Y-106710839D01*
X107226961Y-106710839D02*
X107131723Y-106710839D01*
X107131723Y-106710839D02*
X107036485Y-106663220D01*
X107036485Y-106663220D02*
X106988866Y-106567982D01*
X106988866Y-106567982D02*
X106988866Y-106329887D01*
X106988866Y-106329887D02*
X106941247Y-106234649D01*
X107322200Y-105806077D02*
X107369819Y-105710839D01*
X107369819Y-105710839D02*
X107369819Y-105520363D01*
X107369819Y-105520363D02*
X107322200Y-105425125D01*
X107322200Y-105425125D02*
X107226961Y-105377506D01*
X107226961Y-105377506D02*
X107179342Y-105377506D01*
X107179342Y-105377506D02*
X107084104Y-105425125D01*
X107084104Y-105425125D02*
X107036485Y-105520363D01*
X107036485Y-105520363D02*
X107036485Y-105663220D01*
X107036485Y-105663220D02*
X106988866Y-105758458D01*
X106988866Y-105758458D02*
X106893628Y-105806077D01*
X106893628Y-105806077D02*
X106846009Y-105806077D01*
X106846009Y-105806077D02*
X106750771Y-105758458D01*
X106750771Y-105758458D02*
X106703152Y-105663220D01*
X106703152Y-105663220D02*
X106703152Y-105520363D01*
X106703152Y-105520363D02*
X106750771Y-105425125D01*
X107322200Y-104234648D02*
X107369819Y-104139410D01*
X107369819Y-104139410D02*
X107369819Y-103948934D01*
X107369819Y-103948934D02*
X107322200Y-103853696D01*
X107322200Y-103853696D02*
X107226961Y-103806077D01*
X107226961Y-103806077D02*
X107179342Y-103806077D01*
X107179342Y-103806077D02*
X107084104Y-103853696D01*
X107084104Y-103853696D02*
X107036485Y-103948934D01*
X107036485Y-103948934D02*
X107036485Y-104091791D01*
X107036485Y-104091791D02*
X106988866Y-104187029D01*
X106988866Y-104187029D02*
X106893628Y-104234648D01*
X106893628Y-104234648D02*
X106846009Y-104234648D01*
X106846009Y-104234648D02*
X106750771Y-104187029D01*
X106750771Y-104187029D02*
X106703152Y-104091791D01*
X106703152Y-104091791D02*
X106703152Y-103948934D01*
X106703152Y-103948934D02*
X106750771Y-103853696D01*
X107322200Y-102996553D02*
X107369819Y-103091791D01*
X107369819Y-103091791D02*
X107369819Y-103282267D01*
X107369819Y-103282267D02*
X107322200Y-103377505D01*
X107322200Y-103377505D02*
X107226961Y-103425124D01*
X107226961Y-103425124D02*
X106846009Y-103425124D01*
X106846009Y-103425124D02*
X106750771Y-103377505D01*
X106750771Y-103377505D02*
X106703152Y-103282267D01*
X106703152Y-103282267D02*
X106703152Y-103091791D01*
X106703152Y-103091791D02*
X106750771Y-102996553D01*
X106750771Y-102996553D02*
X106846009Y-102948934D01*
X106846009Y-102948934D02*
X106941247Y-102948934D01*
X106941247Y-102948934D02*
X107036485Y-103425124D01*
X106703152Y-102520362D02*
X107369819Y-102520362D01*
X106798390Y-102520362D02*
X106750771Y-102472743D01*
X106750771Y-102472743D02*
X106703152Y-102377505D01*
X106703152Y-102377505D02*
X106703152Y-102234648D01*
X106703152Y-102234648D02*
X106750771Y-102139410D01*
X106750771Y-102139410D02*
X106846009Y-102091791D01*
X106846009Y-102091791D02*
X107369819Y-102091791D01*
X107322200Y-101663219D02*
X107369819Y-101567981D01*
X107369819Y-101567981D02*
X107369819Y-101377505D01*
X107369819Y-101377505D02*
X107322200Y-101282267D01*
X107322200Y-101282267D02*
X107226961Y-101234648D01*
X107226961Y-101234648D02*
X107179342Y-101234648D01*
X107179342Y-101234648D02*
X107084104Y-101282267D01*
X107084104Y-101282267D02*
X107036485Y-101377505D01*
X107036485Y-101377505D02*
X107036485Y-101520362D01*
X107036485Y-101520362D02*
X106988866Y-101615600D01*
X106988866Y-101615600D02*
X106893628Y-101663219D01*
X106893628Y-101663219D02*
X106846009Y-101663219D01*
X106846009Y-101663219D02*
X106750771Y-101615600D01*
X106750771Y-101615600D02*
X106703152Y-101520362D01*
X106703152Y-101520362D02*
X106703152Y-101377505D01*
X106703152Y-101377505D02*
X106750771Y-101282267D01*
X107369819Y-100663219D02*
X107322200Y-100758457D01*
X107322200Y-100758457D02*
X107274580Y-100806076D01*
X107274580Y-100806076D02*
X107179342Y-100853695D01*
X107179342Y-100853695D02*
X106893628Y-100853695D01*
X106893628Y-100853695D02*
X106798390Y-100806076D01*
X106798390Y-100806076D02*
X106750771Y-100758457D01*
X106750771Y-100758457D02*
X106703152Y-100663219D01*
X106703152Y-100663219D02*
X106703152Y-100520362D01*
X106703152Y-100520362D02*
X106750771Y-100425124D01*
X106750771Y-100425124D02*
X106798390Y-100377505D01*
X106798390Y-100377505D02*
X106893628Y-100329886D01*
X106893628Y-100329886D02*
X107179342Y-100329886D01*
X107179342Y-100329886D02*
X107274580Y-100377505D01*
X107274580Y-100377505D02*
X107322200Y-100425124D01*
X107322200Y-100425124D02*
X107369819Y-100520362D01*
X107369819Y-100520362D02*
X107369819Y-100663219D01*
X107369819Y-99901314D02*
X106703152Y-99901314D01*
X106893628Y-99901314D02*
X106798390Y-99853695D01*
X106798390Y-99853695D02*
X106750771Y-99806076D01*
X106750771Y-99806076D02*
X106703152Y-99710838D01*
X106703152Y-99710838D02*
X106703152Y-99615600D01*
X112908207Y-113369819D02*
X112574874Y-112893628D01*
X112336779Y-113369819D02*
X112336779Y-112369819D01*
X112336779Y-112369819D02*
X112717731Y-112369819D01*
X112717731Y-112369819D02*
X112812969Y-112417438D01*
X112812969Y-112417438D02*
X112860588Y-112465057D01*
X112860588Y-112465057D02*
X112908207Y-112560295D01*
X112908207Y-112560295D02*
X112908207Y-112703152D01*
X112908207Y-112703152D02*
X112860588Y-112798390D01*
X112860588Y-112798390D02*
X112812969Y-112846009D01*
X112812969Y-112846009D02*
X112717731Y-112893628D01*
X112717731Y-112893628D02*
X112336779Y-112893628D01*
X113289160Y-112465057D02*
X113336779Y-112417438D01*
X113336779Y-112417438D02*
X113432017Y-112369819D01*
X113432017Y-112369819D02*
X113670112Y-112369819D01*
X113670112Y-112369819D02*
X113765350Y-112417438D01*
X113765350Y-112417438D02*
X113812969Y-112465057D01*
X113812969Y-112465057D02*
X113860588Y-112560295D01*
X113860588Y-112560295D02*
X113860588Y-112655533D01*
X113860588Y-112655533D02*
X113812969Y-112798390D01*
X113812969Y-112798390D02*
X113241541Y-113369819D01*
X113241541Y-113369819D02*
X113860588Y-113369819D01*
D13*
X112378758Y-84864619D02*
X111902568Y-84864619D01*
X111902568Y-84864619D02*
X111854949Y-85340809D01*
X111854949Y-85340809D02*
X111902568Y-85293190D01*
X111902568Y-85293190D02*
X111997806Y-85245571D01*
X111997806Y-85245571D02*
X112235901Y-85245571D01*
X112235901Y-85245571D02*
X112331139Y-85293190D01*
X112331139Y-85293190D02*
X112378758Y-85340809D01*
X112378758Y-85340809D02*
X112426377Y-85436047D01*
X112426377Y-85436047D02*
X112426377Y-85674142D01*
X112426377Y-85674142D02*
X112378758Y-85769380D01*
X112378758Y-85769380D02*
X112331139Y-85817000D01*
X112331139Y-85817000D02*
X112235901Y-85864619D01*
X112235901Y-85864619D02*
X111997806Y-85864619D01*
X111997806Y-85864619D02*
X111902568Y-85817000D01*
X111902568Y-85817000D02*
X111854949Y-85769380D01*
X112759711Y-85197952D02*
X112997806Y-85864619D01*
X112997806Y-85864619D02*
X113235901Y-85197952D01*
D10*
X107454819Y-84833332D02*
X107454819Y-84261904D01*
X108454819Y-84547618D02*
X107454819Y-84547618D01*
X108407200Y-83547618D02*
X108454819Y-83642856D01*
X108454819Y-83642856D02*
X108454819Y-83833332D01*
X108454819Y-83833332D02*
X108407200Y-83928570D01*
X108407200Y-83928570D02*
X108311961Y-83976189D01*
X108311961Y-83976189D02*
X107931009Y-83976189D01*
X107931009Y-83976189D02*
X107835771Y-83928570D01*
X107835771Y-83928570D02*
X107788152Y-83833332D01*
X107788152Y-83833332D02*
X107788152Y-83642856D01*
X107788152Y-83642856D02*
X107835771Y-83547618D01*
X107835771Y-83547618D02*
X107931009Y-83499999D01*
X107931009Y-83499999D02*
X108026247Y-83499999D01*
X108026247Y-83499999D02*
X108121485Y-83976189D01*
X108454819Y-83071427D02*
X107788152Y-83071427D01*
X107883390Y-83071427D02*
X107835771Y-83023808D01*
X107835771Y-83023808D02*
X107788152Y-82928570D01*
X107788152Y-82928570D02*
X107788152Y-82785713D01*
X107788152Y-82785713D02*
X107835771Y-82690475D01*
X107835771Y-82690475D02*
X107931009Y-82642856D01*
X107931009Y-82642856D02*
X108454819Y-82642856D01*
X107931009Y-82642856D02*
X107835771Y-82595237D01*
X107835771Y-82595237D02*
X107788152Y-82499999D01*
X107788152Y-82499999D02*
X107788152Y-82357142D01*
X107788152Y-82357142D02*
X107835771Y-82261903D01*
X107835771Y-82261903D02*
X107931009Y-82214284D01*
X107931009Y-82214284D02*
X108454819Y-82214284D01*
X107788152Y-81738094D02*
X108788152Y-81738094D01*
X107835771Y-81738094D02*
X107788152Y-81642856D01*
X107788152Y-81642856D02*
X107788152Y-81452380D01*
X107788152Y-81452380D02*
X107835771Y-81357142D01*
X107835771Y-81357142D02*
X107883390Y-81309523D01*
X107883390Y-81309523D02*
X107978628Y-81261904D01*
X107978628Y-81261904D02*
X108264342Y-81261904D01*
X108264342Y-81261904D02*
X108359580Y-81309523D01*
X108359580Y-81309523D02*
X108407200Y-81357142D01*
X108407200Y-81357142D02*
X108454819Y-81452380D01*
X108454819Y-81452380D02*
X108454819Y-81642856D01*
X108454819Y-81642856D02*
X108407200Y-81738094D01*
X108454819Y-89166666D02*
X107978628Y-89499999D01*
X108454819Y-89738094D02*
X107454819Y-89738094D01*
X107454819Y-89738094D02*
X107454819Y-89357142D01*
X107454819Y-89357142D02*
X107502438Y-89261904D01*
X107502438Y-89261904D02*
X107550057Y-89214285D01*
X107550057Y-89214285D02*
X107645295Y-89166666D01*
X107645295Y-89166666D02*
X107788152Y-89166666D01*
X107788152Y-89166666D02*
X107883390Y-89214285D01*
X107883390Y-89214285D02*
X107931009Y-89261904D01*
X107931009Y-89261904D02*
X107978628Y-89357142D01*
X107978628Y-89357142D02*
X107978628Y-89738094D01*
X108454819Y-88214285D02*
X108454819Y-88785713D01*
X108454819Y-88499999D02*
X107454819Y-88499999D01*
X107454819Y-88499999D02*
X107597676Y-88595237D01*
X107597676Y-88595237D02*
X107692914Y-88690475D01*
X107692914Y-88690475D02*
X107740533Y-88785713D01*
D11*
X133208095Y-90187419D02*
X133208095Y-90996942D01*
X133208095Y-90996942D02*
X133255714Y-91092180D01*
X133255714Y-91092180D02*
X133303333Y-91139800D01*
X133303333Y-91139800D02*
X133398571Y-91187419D01*
X133398571Y-91187419D02*
X133589047Y-91187419D01*
X133589047Y-91187419D02*
X133684285Y-91139800D01*
X133684285Y-91139800D02*
X133731904Y-91092180D01*
X133731904Y-91092180D02*
X133779523Y-90996942D01*
X133779523Y-90996942D02*
X133779523Y-90187419D01*
X134779523Y-91187419D02*
X134208095Y-91187419D01*
X134493809Y-91187419D02*
X134493809Y-90187419D01*
X134493809Y-90187419D02*
X134398571Y-90330276D01*
X134398571Y-90330276D02*
X134303333Y-90425514D01*
X134303333Y-90425514D02*
X134208095Y-90473133D01*
D12*
X125730225Y-93820828D02*
X124873082Y-93820828D01*
X125301653Y-93820828D02*
X125301653Y-92320828D01*
X125301653Y-92320828D02*
X125158796Y-92535114D01*
X125158796Y-92535114D02*
X125015939Y-92677971D01*
X125015939Y-92677971D02*
X124873082Y-92749400D01*
X127087367Y-92320828D02*
X126373081Y-92320828D01*
X126373081Y-92320828D02*
X126301653Y-93035114D01*
X126301653Y-93035114D02*
X126373081Y-92963685D01*
X126373081Y-92963685D02*
X126515939Y-92892257D01*
X126515939Y-92892257D02*
X126873081Y-92892257D01*
X126873081Y-92892257D02*
X127015939Y-92963685D01*
X127015939Y-92963685D02*
X127087367Y-93035114D01*
X127087367Y-93035114D02*
X127158796Y-93177971D01*
X127158796Y-93177971D02*
X127158796Y-93535114D01*
X127158796Y-93535114D02*
X127087367Y-93677971D01*
X127087367Y-93677971D02*
X127015939Y-93749400D01*
X127015939Y-93749400D02*
X126873081Y-93820828D01*
X126873081Y-93820828D02*
X126515939Y-93820828D01*
X126515939Y-93820828D02*
X126373081Y-93749400D01*
X126373081Y-93749400D02*
X126301653Y-93677971D01*
X125730225Y-96320828D02*
X124873082Y-96320828D01*
X125301653Y-96320828D02*
X125301653Y-94820828D01*
X125301653Y-94820828D02*
X125158796Y-95035114D01*
X125158796Y-95035114D02*
X125015939Y-95177971D01*
X125015939Y-95177971D02*
X124873082Y-95249400D01*
X127015939Y-94820828D02*
X126730224Y-94820828D01*
X126730224Y-94820828D02*
X126587367Y-94892257D01*
X126587367Y-94892257D02*
X126515939Y-94963685D01*
X126515939Y-94963685D02*
X126373081Y-95177971D01*
X126373081Y-95177971D02*
X126301653Y-95463685D01*
X126301653Y-95463685D02*
X126301653Y-96035114D01*
X126301653Y-96035114D02*
X126373081Y-96177971D01*
X126373081Y-96177971D02*
X126444510Y-96249400D01*
X126444510Y-96249400D02*
X126587367Y-96320828D01*
X126587367Y-96320828D02*
X126873081Y-96320828D01*
X126873081Y-96320828D02*
X127015939Y-96249400D01*
X127015939Y-96249400D02*
X127087367Y-96177971D01*
X127087367Y-96177971D02*
X127158796Y-96035114D01*
X127158796Y-96035114D02*
X127158796Y-95677971D01*
X127158796Y-95677971D02*
X127087367Y-95535114D01*
X127087367Y-95535114D02*
X127015939Y-95463685D01*
X127015939Y-95463685D02*
X126873081Y-95392257D01*
X126873081Y-95392257D02*
X126587367Y-95392257D01*
X126587367Y-95392257D02*
X126444510Y-95463685D01*
X126444510Y-95463685D02*
X126373081Y-95535114D01*
X126373081Y-95535114D02*
X126301653Y-95677971D01*
X140087368Y-115820828D02*
X140087368Y-116820828D01*
X139730225Y-115249400D02*
X139373082Y-116320828D01*
X139373082Y-116320828D02*
X140301653Y-116320828D01*
X140730224Y-115320828D02*
X141730224Y-115320828D01*
X141730224Y-115320828D02*
X141087367Y-116820828D01*
X125730225Y-124320828D02*
X124873082Y-124320828D01*
X125301653Y-124320828D02*
X125301653Y-122820828D01*
X125301653Y-122820828D02*
X125158796Y-123035114D01*
X125158796Y-123035114D02*
X125015939Y-123177971D01*
X125015939Y-123177971D02*
X124873082Y-123249400D01*
X127015939Y-123320828D02*
X127015939Y-124320828D01*
X126658796Y-122749400D02*
X126301653Y-123820828D01*
X126301653Y-123820828D02*
X127230224Y-123820828D01*
X139301653Y-99820828D02*
X140230225Y-99820828D01*
X140230225Y-99820828D02*
X139730225Y-100392257D01*
X139730225Y-100392257D02*
X139944510Y-100392257D01*
X139944510Y-100392257D02*
X140087368Y-100463685D01*
X140087368Y-100463685D02*
X140158796Y-100535114D01*
X140158796Y-100535114D02*
X140230225Y-100677971D01*
X140230225Y-100677971D02*
X140230225Y-101035114D01*
X140230225Y-101035114D02*
X140158796Y-101177971D01*
X140158796Y-101177971D02*
X140087368Y-101249400D01*
X140087368Y-101249400D02*
X139944510Y-101320828D01*
X139944510Y-101320828D02*
X139515939Y-101320828D01*
X139515939Y-101320828D02*
X139373082Y-101249400D01*
X139373082Y-101249400D02*
X139301653Y-101177971D01*
X140730224Y-99820828D02*
X141730224Y-99820828D01*
X141730224Y-99820828D02*
X141087367Y-101320828D01*
X124301653Y-74320828D02*
X125230225Y-74320828D01*
X125230225Y-74320828D02*
X124730225Y-74892257D01*
X124730225Y-74892257D02*
X124944510Y-74892257D01*
X124944510Y-74892257D02*
X125087368Y-74963685D01*
X125087368Y-74963685D02*
X125158796Y-75035114D01*
X125158796Y-75035114D02*
X125230225Y-75177971D01*
X125230225Y-75177971D02*
X125230225Y-75535114D01*
X125230225Y-75535114D02*
X125158796Y-75677971D01*
X125158796Y-75677971D02*
X125087368Y-75749400D01*
X125087368Y-75749400D02*
X124944510Y-75820828D01*
X124944510Y-75820828D02*
X124515939Y-75820828D01*
X124515939Y-75820828D02*
X124373082Y-75749400D01*
X124373082Y-75749400D02*
X124301653Y-75677971D01*
X125658796Y-74320828D02*
X126158796Y-75820828D01*
X126158796Y-75820828D02*
X126658796Y-74320828D01*
X127015938Y-74320828D02*
X127944510Y-74320828D01*
X127944510Y-74320828D02*
X127444510Y-74892257D01*
X127444510Y-74892257D02*
X127658795Y-74892257D01*
X127658795Y-74892257D02*
X127801653Y-74963685D01*
X127801653Y-74963685D02*
X127873081Y-75035114D01*
X127873081Y-75035114D02*
X127944510Y-75177971D01*
X127944510Y-75177971D02*
X127944510Y-75535114D01*
X127944510Y-75535114D02*
X127873081Y-75677971D01*
X127873081Y-75677971D02*
X127801653Y-75749400D01*
X127801653Y-75749400D02*
X127658795Y-75820828D01*
X127658795Y-75820828D02*
X127230224Y-75820828D01*
X127230224Y-75820828D02*
X127087367Y-75749400D01*
X127087367Y-75749400D02*
X127015938Y-75677971D01*
X125587368Y-82320828D02*
X125587368Y-83320828D01*
X125230225Y-81749400D02*
X124873082Y-82820828D01*
X124873082Y-82820828D02*
X125801653Y-82820828D01*
X139301653Y-102320828D02*
X140230225Y-102320828D01*
X140230225Y-102320828D02*
X139730225Y-102892257D01*
X139730225Y-102892257D02*
X139944510Y-102892257D01*
X139944510Y-102892257D02*
X140087368Y-102963685D01*
X140087368Y-102963685D02*
X140158796Y-103035114D01*
X140158796Y-103035114D02*
X140230225Y-103177971D01*
X140230225Y-103177971D02*
X140230225Y-103535114D01*
X140230225Y-103535114D02*
X140158796Y-103677971D01*
X140158796Y-103677971D02*
X140087368Y-103749400D01*
X140087368Y-103749400D02*
X139944510Y-103820828D01*
X139944510Y-103820828D02*
X139515939Y-103820828D01*
X139515939Y-103820828D02*
X139373082Y-103749400D01*
X139373082Y-103749400D02*
X139301653Y-103677971D01*
X141515939Y-102320828D02*
X141230224Y-102320828D01*
X141230224Y-102320828D02*
X141087367Y-102392257D01*
X141087367Y-102392257D02*
X141015939Y-102463685D01*
X141015939Y-102463685D02*
X140873081Y-102677971D01*
X140873081Y-102677971D02*
X140801653Y-102963685D01*
X140801653Y-102963685D02*
X140801653Y-103535114D01*
X140801653Y-103535114D02*
X140873081Y-103677971D01*
X140873081Y-103677971D02*
X140944510Y-103749400D01*
X140944510Y-103749400D02*
X141087367Y-103820828D01*
X141087367Y-103820828D02*
X141373081Y-103820828D01*
X141373081Y-103820828D02*
X141515939Y-103749400D01*
X141515939Y-103749400D02*
X141587367Y-103677971D01*
X141587367Y-103677971D02*
X141658796Y-103535114D01*
X141658796Y-103535114D02*
X141658796Y-103177971D01*
X141658796Y-103177971D02*
X141587367Y-103035114D01*
X141587367Y-103035114D02*
X141515939Y-102963685D01*
X141515939Y-102963685D02*
X141373081Y-102892257D01*
X141373081Y-102892257D02*
X141087367Y-102892257D01*
X141087367Y-102892257D02*
X140944510Y-102963685D01*
X140944510Y-102963685D02*
X140873081Y-103035114D01*
X140873081Y-103035114D02*
X140801653Y-103177971D01*
X125301653Y-80820828D02*
X124801653Y-80106542D01*
X124444510Y-80820828D02*
X124444510Y-79320828D01*
X124444510Y-79320828D02*
X125015939Y-79320828D01*
X125015939Y-79320828D02*
X125158796Y-79392257D01*
X125158796Y-79392257D02*
X125230225Y-79463685D01*
X125230225Y-79463685D02*
X125301653Y-79606542D01*
X125301653Y-79606542D02*
X125301653Y-79820828D01*
X125301653Y-79820828D02*
X125230225Y-79963685D01*
X125230225Y-79963685D02*
X125158796Y-80035114D01*
X125158796Y-80035114D02*
X125015939Y-80106542D01*
X125015939Y-80106542D02*
X124444510Y-80106542D01*
X125873082Y-80749400D02*
X126087368Y-80820828D01*
X126087368Y-80820828D02*
X126444510Y-80820828D01*
X126444510Y-80820828D02*
X126587368Y-80749400D01*
X126587368Y-80749400D02*
X126658796Y-80677971D01*
X126658796Y-80677971D02*
X126730225Y-80535114D01*
X126730225Y-80535114D02*
X126730225Y-80392257D01*
X126730225Y-80392257D02*
X126658796Y-80249400D01*
X126658796Y-80249400D02*
X126587368Y-80177971D01*
X126587368Y-80177971D02*
X126444510Y-80106542D01*
X126444510Y-80106542D02*
X126158796Y-80035114D01*
X126158796Y-80035114D02*
X126015939Y-79963685D01*
X126015939Y-79963685D02*
X125944510Y-79892257D01*
X125944510Y-79892257D02*
X125873082Y-79749400D01*
X125873082Y-79749400D02*
X125873082Y-79606542D01*
X125873082Y-79606542D02*
X125944510Y-79463685D01*
X125944510Y-79463685D02*
X126015939Y-79392257D01*
X126015939Y-79392257D02*
X126158796Y-79320828D01*
X126158796Y-79320828D02*
X126515939Y-79320828D01*
X126515939Y-79320828D02*
X126730225Y-79392257D01*
X127158796Y-79320828D02*
X128015939Y-79320828D01*
X127587367Y-80820828D02*
X127587367Y-79320828D01*
X139301653Y-97320828D02*
X140230225Y-97320828D01*
X140230225Y-97320828D02*
X139730225Y-97892257D01*
X139730225Y-97892257D02*
X139944510Y-97892257D01*
X139944510Y-97892257D02*
X140087368Y-97963685D01*
X140087368Y-97963685D02*
X140158796Y-98035114D01*
X140158796Y-98035114D02*
X140230225Y-98177971D01*
X140230225Y-98177971D02*
X140230225Y-98535114D01*
X140230225Y-98535114D02*
X140158796Y-98677971D01*
X140158796Y-98677971D02*
X140087368Y-98749400D01*
X140087368Y-98749400D02*
X139944510Y-98820828D01*
X139944510Y-98820828D02*
X139515939Y-98820828D01*
X139515939Y-98820828D02*
X139373082Y-98749400D01*
X139373082Y-98749400D02*
X139301653Y-98677971D01*
X141087367Y-97963685D02*
X140944510Y-97892257D01*
X140944510Y-97892257D02*
X140873081Y-97820828D01*
X140873081Y-97820828D02*
X140801653Y-97677971D01*
X140801653Y-97677971D02*
X140801653Y-97606542D01*
X140801653Y-97606542D02*
X140873081Y-97463685D01*
X140873081Y-97463685D02*
X140944510Y-97392257D01*
X140944510Y-97392257D02*
X141087367Y-97320828D01*
X141087367Y-97320828D02*
X141373081Y-97320828D01*
X141373081Y-97320828D02*
X141515939Y-97392257D01*
X141515939Y-97392257D02*
X141587367Y-97463685D01*
X141587367Y-97463685D02*
X141658796Y-97606542D01*
X141658796Y-97606542D02*
X141658796Y-97677971D01*
X141658796Y-97677971D02*
X141587367Y-97820828D01*
X141587367Y-97820828D02*
X141515939Y-97892257D01*
X141515939Y-97892257D02*
X141373081Y-97963685D01*
X141373081Y-97963685D02*
X141087367Y-97963685D01*
X141087367Y-97963685D02*
X140944510Y-98035114D01*
X140944510Y-98035114D02*
X140873081Y-98106542D01*
X140873081Y-98106542D02*
X140801653Y-98249400D01*
X140801653Y-98249400D02*
X140801653Y-98535114D01*
X140801653Y-98535114D02*
X140873081Y-98677971D01*
X140873081Y-98677971D02*
X140944510Y-98749400D01*
X140944510Y-98749400D02*
X141087367Y-98820828D01*
X141087367Y-98820828D02*
X141373081Y-98820828D01*
X141373081Y-98820828D02*
X141515939Y-98749400D01*
X141515939Y-98749400D02*
X141587367Y-98677971D01*
X141587367Y-98677971D02*
X141658796Y-98535114D01*
X141658796Y-98535114D02*
X141658796Y-98249400D01*
X141658796Y-98249400D02*
X141587367Y-98106542D01*
X141587367Y-98106542D02*
X141515939Y-98035114D01*
X141515939Y-98035114D02*
X141373081Y-97963685D01*
X141230225Y-125392257D02*
X141087368Y-125320828D01*
X141087368Y-125320828D02*
X140873082Y-125320828D01*
X140873082Y-125320828D02*
X140658796Y-125392257D01*
X140658796Y-125392257D02*
X140515939Y-125535114D01*
X140515939Y-125535114D02*
X140444510Y-125677971D01*
X140444510Y-125677971D02*
X140373082Y-125963685D01*
X140373082Y-125963685D02*
X140373082Y-126177971D01*
X140373082Y-126177971D02*
X140444510Y-126463685D01*
X140444510Y-126463685D02*
X140515939Y-126606542D01*
X140515939Y-126606542D02*
X140658796Y-126749400D01*
X140658796Y-126749400D02*
X140873082Y-126820828D01*
X140873082Y-126820828D02*
X141015939Y-126820828D01*
X141015939Y-126820828D02*
X141230225Y-126749400D01*
X141230225Y-126749400D02*
X141301653Y-126677971D01*
X141301653Y-126677971D02*
X141301653Y-126177971D01*
X141301653Y-126177971D02*
X141015939Y-126177971D01*
X141230225Y-127892257D02*
X141087368Y-127820828D01*
X141087368Y-127820828D02*
X140873082Y-127820828D01*
X140873082Y-127820828D02*
X140658796Y-127892257D01*
X140658796Y-127892257D02*
X140515939Y-128035114D01*
X140515939Y-128035114D02*
X140444510Y-128177971D01*
X140444510Y-128177971D02*
X140373082Y-128463685D01*
X140373082Y-128463685D02*
X140373082Y-128677971D01*
X140373082Y-128677971D02*
X140444510Y-128963685D01*
X140444510Y-128963685D02*
X140515939Y-129106542D01*
X140515939Y-129106542D02*
X140658796Y-129249400D01*
X140658796Y-129249400D02*
X140873082Y-129320828D01*
X140873082Y-129320828D02*
X141015939Y-129320828D01*
X141015939Y-129320828D02*
X141230225Y-129249400D01*
X141230225Y-129249400D02*
X141301653Y-129177971D01*
X141301653Y-129177971D02*
X141301653Y-128677971D01*
X141301653Y-128677971D02*
X141015939Y-128677971D01*
X139301653Y-105320828D02*
X140230225Y-105320828D01*
X140230225Y-105320828D02*
X139730225Y-105892257D01*
X139730225Y-105892257D02*
X139944510Y-105892257D01*
X139944510Y-105892257D02*
X140087368Y-105963685D01*
X140087368Y-105963685D02*
X140158796Y-106035114D01*
X140158796Y-106035114D02*
X140230225Y-106177971D01*
X140230225Y-106177971D02*
X140230225Y-106535114D01*
X140230225Y-106535114D02*
X140158796Y-106677971D01*
X140158796Y-106677971D02*
X140087368Y-106749400D01*
X140087368Y-106749400D02*
X139944510Y-106820828D01*
X139944510Y-106820828D02*
X139515939Y-106820828D01*
X139515939Y-106820828D02*
X139373082Y-106749400D01*
X139373082Y-106749400D02*
X139301653Y-106677971D01*
X141587367Y-105320828D02*
X140873081Y-105320828D01*
X140873081Y-105320828D02*
X140801653Y-106035114D01*
X140801653Y-106035114D02*
X140873081Y-105963685D01*
X140873081Y-105963685D02*
X141015939Y-105892257D01*
X141015939Y-105892257D02*
X141373081Y-105892257D01*
X141373081Y-105892257D02*
X141515939Y-105963685D01*
X141515939Y-105963685D02*
X141587367Y-106035114D01*
X141587367Y-106035114D02*
X141658796Y-106177971D01*
X141658796Y-106177971D02*
X141658796Y-106535114D01*
X141658796Y-106535114D02*
X141587367Y-106677971D01*
X141587367Y-106677971D02*
X141515939Y-106749400D01*
X141515939Y-106749400D02*
X141373081Y-106820828D01*
X141373081Y-106820828D02*
X141015939Y-106820828D01*
X141015939Y-106820828D02*
X140873081Y-106749400D01*
X140873081Y-106749400D02*
X140801653Y-106677971D01*
X125840225Y-118800828D02*
X124983082Y-118800828D01*
X125411653Y-118800828D02*
X125411653Y-117300828D01*
X125411653Y-117300828D02*
X125268796Y-117515114D01*
X125268796Y-117515114D02*
X125125939Y-117657971D01*
X125125939Y-117657971D02*
X124983082Y-117729400D01*
X126411653Y-117443685D02*
X126483081Y-117372257D01*
X126483081Y-117372257D02*
X126625939Y-117300828D01*
X126625939Y-117300828D02*
X126983081Y-117300828D01*
X126983081Y-117300828D02*
X127125939Y-117372257D01*
X127125939Y-117372257D02*
X127197367Y-117443685D01*
X127197367Y-117443685D02*
X127268796Y-117586542D01*
X127268796Y-117586542D02*
X127268796Y-117729400D01*
X127268796Y-117729400D02*
X127197367Y-117943685D01*
X127197367Y-117943685D02*
X126340224Y-118800828D01*
X126340224Y-118800828D02*
X127268796Y-118800828D01*
X125730225Y-127892257D02*
X125587368Y-127820828D01*
X125587368Y-127820828D02*
X125373082Y-127820828D01*
X125373082Y-127820828D02*
X125158796Y-127892257D01*
X125158796Y-127892257D02*
X125015939Y-128035114D01*
X125015939Y-128035114D02*
X124944510Y-128177971D01*
X124944510Y-128177971D02*
X124873082Y-128463685D01*
X124873082Y-128463685D02*
X124873082Y-128677971D01*
X124873082Y-128677971D02*
X124944510Y-128963685D01*
X124944510Y-128963685D02*
X125015939Y-129106542D01*
X125015939Y-129106542D02*
X125158796Y-129249400D01*
X125158796Y-129249400D02*
X125373082Y-129320828D01*
X125373082Y-129320828D02*
X125515939Y-129320828D01*
X125515939Y-129320828D02*
X125730225Y-129249400D01*
X125730225Y-129249400D02*
X125801653Y-129177971D01*
X125801653Y-129177971D02*
X125801653Y-128677971D01*
X125801653Y-128677971D02*
X125515939Y-128677971D01*
X140087368Y-113320828D02*
X140087368Y-114320828D01*
X139730225Y-112749400D02*
X139373082Y-113820828D01*
X139373082Y-113820828D02*
X140301653Y-113820828D01*
X141087367Y-113463685D02*
X140944510Y-113392257D01*
X140944510Y-113392257D02*
X140873081Y-113320828D01*
X140873081Y-113320828D02*
X140801653Y-113177971D01*
X140801653Y-113177971D02*
X140801653Y-113106542D01*
X140801653Y-113106542D02*
X140873081Y-112963685D01*
X140873081Y-112963685D02*
X140944510Y-112892257D01*
X140944510Y-112892257D02*
X141087367Y-112820828D01*
X141087367Y-112820828D02*
X141373081Y-112820828D01*
X141373081Y-112820828D02*
X141515939Y-112892257D01*
X141515939Y-112892257D02*
X141587367Y-112963685D01*
X141587367Y-112963685D02*
X141658796Y-113106542D01*
X141658796Y-113106542D02*
X141658796Y-113177971D01*
X141658796Y-113177971D02*
X141587367Y-113320828D01*
X141587367Y-113320828D02*
X141515939Y-113392257D01*
X141515939Y-113392257D02*
X141373081Y-113463685D01*
X141373081Y-113463685D02*
X141087367Y-113463685D01*
X141087367Y-113463685D02*
X140944510Y-113535114D01*
X140944510Y-113535114D02*
X140873081Y-113606542D01*
X140873081Y-113606542D02*
X140801653Y-113749400D01*
X140801653Y-113749400D02*
X140801653Y-114035114D01*
X140801653Y-114035114D02*
X140873081Y-114177971D01*
X140873081Y-114177971D02*
X140944510Y-114249400D01*
X140944510Y-114249400D02*
X141087367Y-114320828D01*
X141087367Y-114320828D02*
X141373081Y-114320828D01*
X141373081Y-114320828D02*
X141515939Y-114249400D01*
X141515939Y-114249400D02*
X141587367Y-114177971D01*
X141587367Y-114177971D02*
X141658796Y-114035114D01*
X141658796Y-114035114D02*
X141658796Y-113749400D01*
X141658796Y-113749400D02*
X141587367Y-113606542D01*
X141587367Y-113606542D02*
X141515939Y-113535114D01*
X141515939Y-113535114D02*
X141373081Y-113463685D01*
X124301653Y-76820828D02*
X125230225Y-76820828D01*
X125230225Y-76820828D02*
X124730225Y-77392257D01*
X124730225Y-77392257D02*
X124944510Y-77392257D01*
X124944510Y-77392257D02*
X125087368Y-77463685D01*
X125087368Y-77463685D02*
X125158796Y-77535114D01*
X125158796Y-77535114D02*
X125230225Y-77677971D01*
X125230225Y-77677971D02*
X125230225Y-78035114D01*
X125230225Y-78035114D02*
X125158796Y-78177971D01*
X125158796Y-78177971D02*
X125087368Y-78249400D01*
X125087368Y-78249400D02*
X124944510Y-78320828D01*
X124944510Y-78320828D02*
X124515939Y-78320828D01*
X124515939Y-78320828D02*
X124373082Y-78249400D01*
X124373082Y-78249400D02*
X124301653Y-78177971D01*
X125658796Y-76820828D02*
X126158796Y-78320828D01*
X126158796Y-78320828D02*
X126658796Y-76820828D01*
X127015938Y-76820828D02*
X127944510Y-76820828D01*
X127944510Y-76820828D02*
X127444510Y-77392257D01*
X127444510Y-77392257D02*
X127658795Y-77392257D01*
X127658795Y-77392257D02*
X127801653Y-77463685D01*
X127801653Y-77463685D02*
X127873081Y-77535114D01*
X127873081Y-77535114D02*
X127944510Y-77677971D01*
X127944510Y-77677971D02*
X127944510Y-78035114D01*
X127944510Y-78035114D02*
X127873081Y-78177971D01*
X127873081Y-78177971D02*
X127801653Y-78249400D01*
X127801653Y-78249400D02*
X127658795Y-78320828D01*
X127658795Y-78320828D02*
X127230224Y-78320828D01*
X127230224Y-78320828D02*
X127087367Y-78249400D01*
X127087367Y-78249400D02*
X127015938Y-78177971D01*
X125730225Y-121820828D02*
X124873082Y-121820828D01*
X125301653Y-121820828D02*
X125301653Y-120320828D01*
X125301653Y-120320828D02*
X125158796Y-120535114D01*
X125158796Y-120535114D02*
X125015939Y-120677971D01*
X125015939Y-120677971D02*
X124873082Y-120749400D01*
X126230224Y-120320828D02*
X127158796Y-120320828D01*
X127158796Y-120320828D02*
X126658796Y-120892257D01*
X126658796Y-120892257D02*
X126873081Y-120892257D01*
X126873081Y-120892257D02*
X127015939Y-120963685D01*
X127015939Y-120963685D02*
X127087367Y-121035114D01*
X127087367Y-121035114D02*
X127158796Y-121177971D01*
X127158796Y-121177971D02*
X127158796Y-121535114D01*
X127158796Y-121535114D02*
X127087367Y-121677971D01*
X127087367Y-121677971D02*
X127015939Y-121749400D01*
X127015939Y-121749400D02*
X126873081Y-121820828D01*
X126873081Y-121820828D02*
X126444510Y-121820828D01*
X126444510Y-121820828D02*
X126301653Y-121749400D01*
X126301653Y-121749400D02*
X126230224Y-121677971D01*
X125658796Y-125320828D02*
X124944510Y-125320828D01*
X124944510Y-125320828D02*
X124873082Y-126035114D01*
X124873082Y-126035114D02*
X124944510Y-125963685D01*
X124944510Y-125963685D02*
X125087368Y-125892257D01*
X125087368Y-125892257D02*
X125444510Y-125892257D01*
X125444510Y-125892257D02*
X125587368Y-125963685D01*
X125587368Y-125963685D02*
X125658796Y-126035114D01*
X125658796Y-126035114D02*
X125730225Y-126177971D01*
X125730225Y-126177971D02*
X125730225Y-126535114D01*
X125730225Y-126535114D02*
X125658796Y-126677971D01*
X125658796Y-126677971D02*
X125587368Y-126749400D01*
X125587368Y-126749400D02*
X125444510Y-126820828D01*
X125444510Y-126820828D02*
X125087368Y-126820828D01*
X125087368Y-126820828D02*
X124944510Y-126749400D01*
X124944510Y-126749400D02*
X124873082Y-126677971D01*
X126158796Y-125320828D02*
X126658796Y-126820828D01*
X126658796Y-126820828D02*
X127158796Y-125320828D01*
X132075156Y-114805713D02*
X132075156Y-114305713D01*
X132860870Y-114091427D02*
X132860870Y-114805713D01*
X132860870Y-114805713D02*
X131360870Y-114805713D01*
X131360870Y-114805713D02*
X131360870Y-114091427D01*
X132789442Y-113519998D02*
X132860870Y-113305713D01*
X132860870Y-113305713D02*
X132860870Y-112948570D01*
X132860870Y-112948570D02*
X132789442Y-112805713D01*
X132789442Y-112805713D02*
X132718013Y-112734284D01*
X132718013Y-112734284D02*
X132575156Y-112662855D01*
X132575156Y-112662855D02*
X132432299Y-112662855D01*
X132432299Y-112662855D02*
X132289442Y-112734284D01*
X132289442Y-112734284D02*
X132218013Y-112805713D01*
X132218013Y-112805713D02*
X132146584Y-112948570D01*
X132146584Y-112948570D02*
X132075156Y-113234284D01*
X132075156Y-113234284D02*
X132003727Y-113377141D01*
X132003727Y-113377141D02*
X131932299Y-113448570D01*
X131932299Y-113448570D02*
X131789442Y-113519998D01*
X131789442Y-113519998D02*
X131646584Y-113519998D01*
X131646584Y-113519998D02*
X131503727Y-113448570D01*
X131503727Y-113448570D02*
X131432299Y-113377141D01*
X131432299Y-113377141D02*
X131360870Y-113234284D01*
X131360870Y-113234284D02*
X131360870Y-112877141D01*
X131360870Y-112877141D02*
X131432299Y-112662855D01*
X132860870Y-112019999D02*
X131360870Y-112019999D01*
X131360870Y-112019999D02*
X131360870Y-111448570D01*
X131360870Y-111448570D02*
X131432299Y-111305713D01*
X131432299Y-111305713D02*
X131503727Y-111234284D01*
X131503727Y-111234284D02*
X131646584Y-111162856D01*
X131646584Y-111162856D02*
X131860870Y-111162856D01*
X131860870Y-111162856D02*
X132003727Y-111234284D01*
X132003727Y-111234284D02*
X132075156Y-111305713D01*
X132075156Y-111305713D02*
X132146584Y-111448570D01*
X132146584Y-111448570D02*
X132146584Y-112019999D01*
X131360870Y-110662856D02*
X131360870Y-109734284D01*
X131360870Y-109734284D02*
X131932299Y-110234284D01*
X131932299Y-110234284D02*
X131932299Y-110019999D01*
X131932299Y-110019999D02*
X132003727Y-109877142D01*
X132003727Y-109877142D02*
X132075156Y-109805713D01*
X132075156Y-109805713D02*
X132218013Y-109734284D01*
X132218013Y-109734284D02*
X132575156Y-109734284D01*
X132575156Y-109734284D02*
X132718013Y-109805713D01*
X132718013Y-109805713D02*
X132789442Y-109877142D01*
X132789442Y-109877142D02*
X132860870Y-110019999D01*
X132860870Y-110019999D02*
X132860870Y-110448570D01*
X132860870Y-110448570D02*
X132789442Y-110591427D01*
X132789442Y-110591427D02*
X132718013Y-110662856D01*
X131503727Y-109162856D02*
X131432299Y-109091428D01*
X131432299Y-109091428D02*
X131360870Y-108948571D01*
X131360870Y-108948571D02*
X131360870Y-108591428D01*
X131360870Y-108591428D02*
X131432299Y-108448571D01*
X131432299Y-108448571D02*
X131503727Y-108377142D01*
X131503727Y-108377142D02*
X131646584Y-108305713D01*
X131646584Y-108305713D02*
X131789442Y-108305713D01*
X131789442Y-108305713D02*
X132003727Y-108377142D01*
X132003727Y-108377142D02*
X132860870Y-109234285D01*
X132860870Y-109234285D02*
X132860870Y-108305713D01*
X132289442Y-107662857D02*
X132289442Y-106520000D01*
X132789442Y-105877142D02*
X132860870Y-105662857D01*
X132860870Y-105662857D02*
X132860870Y-105305714D01*
X132860870Y-105305714D02*
X132789442Y-105162857D01*
X132789442Y-105162857D02*
X132718013Y-105091428D01*
X132718013Y-105091428D02*
X132575156Y-105019999D01*
X132575156Y-105019999D02*
X132432299Y-105019999D01*
X132432299Y-105019999D02*
X132289442Y-105091428D01*
X132289442Y-105091428D02*
X132218013Y-105162857D01*
X132218013Y-105162857D02*
X132146584Y-105305714D01*
X132146584Y-105305714D02*
X132075156Y-105591428D01*
X132075156Y-105591428D02*
X132003727Y-105734285D01*
X132003727Y-105734285D02*
X131932299Y-105805714D01*
X131932299Y-105805714D02*
X131789442Y-105877142D01*
X131789442Y-105877142D02*
X131646584Y-105877142D01*
X131646584Y-105877142D02*
X131503727Y-105805714D01*
X131503727Y-105805714D02*
X131432299Y-105734285D01*
X131432299Y-105734285D02*
X131360870Y-105591428D01*
X131360870Y-105591428D02*
X131360870Y-105234285D01*
X131360870Y-105234285D02*
X131432299Y-105019999D01*
X131360870Y-104520000D02*
X131360870Y-103591428D01*
X131360870Y-103591428D02*
X131932299Y-104091428D01*
X131932299Y-104091428D02*
X131932299Y-103877143D01*
X131932299Y-103877143D02*
X132003727Y-103734286D01*
X132003727Y-103734286D02*
X132075156Y-103662857D01*
X132075156Y-103662857D02*
X132218013Y-103591428D01*
X132218013Y-103591428D02*
X132575156Y-103591428D01*
X132575156Y-103591428D02*
X132718013Y-103662857D01*
X132718013Y-103662857D02*
X132789442Y-103734286D01*
X132789442Y-103734286D02*
X132860870Y-103877143D01*
X132860870Y-103877143D02*
X132860870Y-104305714D01*
X132860870Y-104305714D02*
X132789442Y-104448571D01*
X132789442Y-104448571D02*
X132718013Y-104520000D01*
X132289442Y-102948572D02*
X132289442Y-101805715D01*
X132860870Y-101091429D02*
X131360870Y-101091429D01*
X131360870Y-101091429D02*
X131360870Y-100734286D01*
X131360870Y-100734286D02*
X131432299Y-100520000D01*
X131432299Y-100520000D02*
X131575156Y-100377143D01*
X131575156Y-100377143D02*
X131718013Y-100305714D01*
X131718013Y-100305714D02*
X132003727Y-100234286D01*
X132003727Y-100234286D02*
X132218013Y-100234286D01*
X132218013Y-100234286D02*
X132503727Y-100305714D01*
X132503727Y-100305714D02*
X132646584Y-100377143D01*
X132646584Y-100377143D02*
X132789442Y-100520000D01*
X132789442Y-100520000D02*
X132860870Y-100734286D01*
X132860870Y-100734286D02*
X132860870Y-101091429D01*
X132789442Y-99020000D02*
X132860870Y-99162857D01*
X132860870Y-99162857D02*
X132860870Y-99448572D01*
X132860870Y-99448572D02*
X132789442Y-99591429D01*
X132789442Y-99591429D02*
X132646584Y-99662857D01*
X132646584Y-99662857D02*
X132075156Y-99662857D01*
X132075156Y-99662857D02*
X131932299Y-99591429D01*
X131932299Y-99591429D02*
X131860870Y-99448572D01*
X131860870Y-99448572D02*
X131860870Y-99162857D01*
X131860870Y-99162857D02*
X131932299Y-99020000D01*
X131932299Y-99020000D02*
X132075156Y-98948572D01*
X132075156Y-98948572D02*
X132218013Y-98948572D01*
X132218013Y-98948572D02*
X132360870Y-99662857D01*
X131860870Y-98448572D02*
X132860870Y-98091429D01*
X132860870Y-98091429D02*
X131860870Y-97734286D01*
X132860870Y-97162858D02*
X131360870Y-97162858D01*
X132860870Y-96305715D02*
X132003727Y-96948572D01*
X131360870Y-96305715D02*
X132218013Y-97162858D01*
X132860870Y-95662858D02*
X131860870Y-95662858D01*
X131360870Y-95662858D02*
X131432299Y-95734286D01*
X131432299Y-95734286D02*
X131503727Y-95662858D01*
X131503727Y-95662858D02*
X131432299Y-95591429D01*
X131432299Y-95591429D02*
X131360870Y-95662858D01*
X131360870Y-95662858D02*
X131503727Y-95662858D01*
X131860870Y-95162857D02*
X131860870Y-94591429D01*
X131360870Y-94948572D02*
X132646584Y-94948572D01*
X132646584Y-94948572D02*
X132789442Y-94877143D01*
X132789442Y-94877143D02*
X132860870Y-94734286D01*
X132860870Y-94734286D02*
X132860870Y-94591429D01*
X132718013Y-93234286D02*
X132789442Y-93305714D01*
X132789442Y-93305714D02*
X132860870Y-93520000D01*
X132860870Y-93520000D02*
X132860870Y-93662857D01*
X132860870Y-93662857D02*
X132789442Y-93877143D01*
X132789442Y-93877143D02*
X132646584Y-94020000D01*
X132646584Y-94020000D02*
X132503727Y-94091429D01*
X132503727Y-94091429D02*
X132218013Y-94162857D01*
X132218013Y-94162857D02*
X132003727Y-94162857D01*
X132003727Y-94162857D02*
X131718013Y-94091429D01*
X131718013Y-94091429D02*
X131575156Y-94020000D01*
X131575156Y-94020000D02*
X131432299Y-93877143D01*
X131432299Y-93877143D02*
X131360870Y-93662857D01*
X131360870Y-93662857D02*
X131360870Y-93520000D01*
X131360870Y-93520000D02*
X131432299Y-93305714D01*
X131432299Y-93305714D02*
X131503727Y-93234286D01*
X132289442Y-92591429D02*
X132289442Y-91448572D01*
X132860870Y-89948571D02*
X132860870Y-90805714D01*
X132860870Y-90377143D02*
X131360870Y-90377143D01*
X131360870Y-90377143D02*
X131575156Y-90520000D01*
X131575156Y-90520000D02*
X131718013Y-90662857D01*
X131718013Y-90662857D02*
X131789442Y-90805714D01*
X131860870Y-88305715D02*
X132860870Y-88020001D01*
X132860870Y-88020001D02*
X132146584Y-87734286D01*
X132146584Y-87734286D02*
X132860870Y-87448572D01*
X132860870Y-87448572D02*
X131860870Y-87162858D01*
X132860870Y-86591429D02*
X131860870Y-86591429D01*
X131360870Y-86591429D02*
X131432299Y-86662857D01*
X131432299Y-86662857D02*
X131503727Y-86591429D01*
X131503727Y-86591429D02*
X131432299Y-86520000D01*
X131432299Y-86520000D02*
X131360870Y-86591429D01*
X131360870Y-86591429D02*
X131503727Y-86591429D01*
X131860870Y-86091428D02*
X131860870Y-85520000D01*
X131360870Y-85877143D02*
X132646584Y-85877143D01*
X132646584Y-85877143D02*
X132789442Y-85805714D01*
X132789442Y-85805714D02*
X132860870Y-85662857D01*
X132860870Y-85662857D02*
X132860870Y-85520000D01*
X132860870Y-85020000D02*
X131360870Y-85020000D01*
X132860870Y-84377143D02*
X132075156Y-84377143D01*
X132075156Y-84377143D02*
X131932299Y-84448571D01*
X131932299Y-84448571D02*
X131860870Y-84591428D01*
X131860870Y-84591428D02*
X131860870Y-84805714D01*
X131860870Y-84805714D02*
X131932299Y-84948571D01*
X131932299Y-84948571D02*
X132003727Y-85020000D01*
X134490072Y-115698571D02*
X134490072Y-115198571D01*
X135275786Y-114984285D02*
X135275786Y-115698571D01*
X135275786Y-115698571D02*
X133775786Y-115698571D01*
X133775786Y-115698571D02*
X133775786Y-114984285D01*
X135204358Y-114412856D02*
X135275786Y-114198571D01*
X135275786Y-114198571D02*
X135275786Y-113841428D01*
X135275786Y-113841428D02*
X135204358Y-113698571D01*
X135204358Y-113698571D02*
X135132929Y-113627142D01*
X135132929Y-113627142D02*
X134990072Y-113555713D01*
X134990072Y-113555713D02*
X134847215Y-113555713D01*
X134847215Y-113555713D02*
X134704358Y-113627142D01*
X134704358Y-113627142D02*
X134632929Y-113698571D01*
X134632929Y-113698571D02*
X134561500Y-113841428D01*
X134561500Y-113841428D02*
X134490072Y-114127142D01*
X134490072Y-114127142D02*
X134418643Y-114269999D01*
X134418643Y-114269999D02*
X134347215Y-114341428D01*
X134347215Y-114341428D02*
X134204358Y-114412856D01*
X134204358Y-114412856D02*
X134061500Y-114412856D01*
X134061500Y-114412856D02*
X133918643Y-114341428D01*
X133918643Y-114341428D02*
X133847215Y-114269999D01*
X133847215Y-114269999D02*
X133775786Y-114127142D01*
X133775786Y-114127142D02*
X133775786Y-113769999D01*
X133775786Y-113769999D02*
X133847215Y-113555713D01*
X135275786Y-112912857D02*
X133775786Y-112912857D01*
X133775786Y-112912857D02*
X133775786Y-112341428D01*
X133775786Y-112341428D02*
X133847215Y-112198571D01*
X133847215Y-112198571D02*
X133918643Y-112127142D01*
X133918643Y-112127142D02*
X134061500Y-112055714D01*
X134061500Y-112055714D02*
X134275786Y-112055714D01*
X134275786Y-112055714D02*
X134418643Y-112127142D01*
X134418643Y-112127142D02*
X134490072Y-112198571D01*
X134490072Y-112198571D02*
X134561500Y-112341428D01*
X134561500Y-112341428D02*
X134561500Y-112912857D01*
X133775786Y-111555714D02*
X133775786Y-110627142D01*
X133775786Y-110627142D02*
X134347215Y-111127142D01*
X134347215Y-111127142D02*
X134347215Y-110912857D01*
X134347215Y-110912857D02*
X134418643Y-110770000D01*
X134418643Y-110770000D02*
X134490072Y-110698571D01*
X134490072Y-110698571D02*
X134632929Y-110627142D01*
X134632929Y-110627142D02*
X134990072Y-110627142D01*
X134990072Y-110627142D02*
X135132929Y-110698571D01*
X135132929Y-110698571D02*
X135204358Y-110770000D01*
X135204358Y-110770000D02*
X135275786Y-110912857D01*
X135275786Y-110912857D02*
X135275786Y-111341428D01*
X135275786Y-111341428D02*
X135204358Y-111484285D01*
X135204358Y-111484285D02*
X135132929Y-111555714D01*
X133918643Y-110055714D02*
X133847215Y-109984286D01*
X133847215Y-109984286D02*
X133775786Y-109841429D01*
X133775786Y-109841429D02*
X133775786Y-109484286D01*
X133775786Y-109484286D02*
X133847215Y-109341429D01*
X133847215Y-109341429D02*
X133918643Y-109270000D01*
X133918643Y-109270000D02*
X134061500Y-109198571D01*
X134061500Y-109198571D02*
X134204358Y-109198571D01*
X134204358Y-109198571D02*
X134418643Y-109270000D01*
X134418643Y-109270000D02*
X135275786Y-110127143D01*
X135275786Y-110127143D02*
X135275786Y-109198571D01*
X134704358Y-108555715D02*
X134704358Y-107412858D01*
X135204358Y-106770000D02*
X135275786Y-106555715D01*
X135275786Y-106555715D02*
X135275786Y-106198572D01*
X135275786Y-106198572D02*
X135204358Y-106055715D01*
X135204358Y-106055715D02*
X135132929Y-105984286D01*
X135132929Y-105984286D02*
X134990072Y-105912857D01*
X134990072Y-105912857D02*
X134847215Y-105912857D01*
X134847215Y-105912857D02*
X134704358Y-105984286D01*
X134704358Y-105984286D02*
X134632929Y-106055715D01*
X134632929Y-106055715D02*
X134561500Y-106198572D01*
X134561500Y-106198572D02*
X134490072Y-106484286D01*
X134490072Y-106484286D02*
X134418643Y-106627143D01*
X134418643Y-106627143D02*
X134347215Y-106698572D01*
X134347215Y-106698572D02*
X134204358Y-106770000D01*
X134204358Y-106770000D02*
X134061500Y-106770000D01*
X134061500Y-106770000D02*
X133918643Y-106698572D01*
X133918643Y-106698572D02*
X133847215Y-106627143D01*
X133847215Y-106627143D02*
X133775786Y-106484286D01*
X133775786Y-106484286D02*
X133775786Y-106127143D01*
X133775786Y-106127143D02*
X133847215Y-105912857D01*
X133775786Y-105412858D02*
X133775786Y-104484286D01*
X133775786Y-104484286D02*
X134347215Y-104984286D01*
X134347215Y-104984286D02*
X134347215Y-104770001D01*
X134347215Y-104770001D02*
X134418643Y-104627144D01*
X134418643Y-104627144D02*
X134490072Y-104555715D01*
X134490072Y-104555715D02*
X134632929Y-104484286D01*
X134632929Y-104484286D02*
X134990072Y-104484286D01*
X134990072Y-104484286D02*
X135132929Y-104555715D01*
X135132929Y-104555715D02*
X135204358Y-104627144D01*
X135204358Y-104627144D02*
X135275786Y-104770001D01*
X135275786Y-104770001D02*
X135275786Y-105198572D01*
X135275786Y-105198572D02*
X135204358Y-105341429D01*
X135204358Y-105341429D02*
X135132929Y-105412858D01*
X134704358Y-103841430D02*
X134704358Y-102698573D01*
X133775786Y-102127144D02*
X135275786Y-101770001D01*
X135275786Y-101770001D02*
X134204358Y-101484287D01*
X134204358Y-101484287D02*
X135275786Y-101198572D01*
X135275786Y-101198572D02*
X133775786Y-100841430D01*
X135275786Y-99412858D02*
X134561500Y-99912858D01*
X135275786Y-100270001D02*
X133775786Y-100270001D01*
X133775786Y-100270001D02*
X133775786Y-99698572D01*
X133775786Y-99698572D02*
X133847215Y-99555715D01*
X133847215Y-99555715D02*
X133918643Y-99484286D01*
X133918643Y-99484286D02*
X134061500Y-99412858D01*
X134061500Y-99412858D02*
X134275786Y-99412858D01*
X134275786Y-99412858D02*
X134418643Y-99484286D01*
X134418643Y-99484286D02*
X134490072Y-99555715D01*
X134490072Y-99555715D02*
X134561500Y-99698572D01*
X134561500Y-99698572D02*
X134561500Y-100270001D01*
X133775786Y-98484286D02*
X133775786Y-98198572D01*
X133775786Y-98198572D02*
X133847215Y-98055715D01*
X133847215Y-98055715D02*
X133990072Y-97912858D01*
X133990072Y-97912858D02*
X134275786Y-97841429D01*
X134275786Y-97841429D02*
X134775786Y-97841429D01*
X134775786Y-97841429D02*
X135061500Y-97912858D01*
X135061500Y-97912858D02*
X135204358Y-98055715D01*
X135204358Y-98055715D02*
X135275786Y-98198572D01*
X135275786Y-98198572D02*
X135275786Y-98484286D01*
X135275786Y-98484286D02*
X135204358Y-98627144D01*
X135204358Y-98627144D02*
X135061500Y-98770001D01*
X135061500Y-98770001D02*
X134775786Y-98841429D01*
X134775786Y-98841429D02*
X134275786Y-98841429D01*
X134275786Y-98841429D02*
X133990072Y-98770001D01*
X133990072Y-98770001D02*
X133847215Y-98627144D01*
X133847215Y-98627144D02*
X133775786Y-98484286D01*
X133775786Y-96912857D02*
X133775786Y-96627143D01*
X133775786Y-96627143D02*
X133847215Y-96484286D01*
X133847215Y-96484286D02*
X133990072Y-96341429D01*
X133990072Y-96341429D02*
X134275786Y-96270000D01*
X134275786Y-96270000D02*
X134775786Y-96270000D01*
X134775786Y-96270000D02*
X135061500Y-96341429D01*
X135061500Y-96341429D02*
X135204358Y-96484286D01*
X135204358Y-96484286D02*
X135275786Y-96627143D01*
X135275786Y-96627143D02*
X135275786Y-96912857D01*
X135275786Y-96912857D02*
X135204358Y-97055715D01*
X135204358Y-97055715D02*
X135061500Y-97198572D01*
X135061500Y-97198572D02*
X134775786Y-97270000D01*
X134775786Y-97270000D02*
X134275786Y-97270000D01*
X134275786Y-97270000D02*
X133990072Y-97198572D01*
X133990072Y-97198572D02*
X133847215Y-97055715D01*
X133847215Y-97055715D02*
X133775786Y-96912857D01*
X135275786Y-95627143D02*
X133775786Y-95627143D01*
X133775786Y-95627143D02*
X134847215Y-95127143D01*
X134847215Y-95127143D02*
X133775786Y-94627143D01*
X133775786Y-94627143D02*
X135275786Y-94627143D01*
X134704358Y-93912857D02*
X134704358Y-92770000D01*
X135275786Y-91269999D02*
X135275786Y-92127142D01*
X135275786Y-91698571D02*
X133775786Y-91698571D01*
X133775786Y-91698571D02*
X133990072Y-91841428D01*
X133990072Y-91841428D02*
X134132929Y-91984285D01*
X134132929Y-91984285D02*
X134204358Y-92127142D01*
X135275786Y-89484286D02*
X133775786Y-89484286D01*
X133775786Y-89484286D02*
X134847215Y-88984286D01*
X134847215Y-88984286D02*
X133775786Y-88484286D01*
X133775786Y-88484286D02*
X135275786Y-88484286D01*
X135275786Y-87555714D02*
X135204358Y-87698571D01*
X135204358Y-87698571D02*
X135132929Y-87770000D01*
X135132929Y-87770000D02*
X134990072Y-87841428D01*
X134990072Y-87841428D02*
X134561500Y-87841428D01*
X134561500Y-87841428D02*
X134418643Y-87770000D01*
X134418643Y-87770000D02*
X134347215Y-87698571D01*
X134347215Y-87698571D02*
X134275786Y-87555714D01*
X134275786Y-87555714D02*
X134275786Y-87341428D01*
X134275786Y-87341428D02*
X134347215Y-87198571D01*
X134347215Y-87198571D02*
X134418643Y-87127143D01*
X134418643Y-87127143D02*
X134561500Y-87055714D01*
X134561500Y-87055714D02*
X134990072Y-87055714D01*
X134990072Y-87055714D02*
X135132929Y-87127143D01*
X135132929Y-87127143D02*
X135204358Y-87198571D01*
X135204358Y-87198571D02*
X135275786Y-87341428D01*
X135275786Y-87341428D02*
X135275786Y-87555714D01*
X135275786Y-85770000D02*
X133775786Y-85770000D01*
X135204358Y-85770000D02*
X135275786Y-85912857D01*
X135275786Y-85912857D02*
X135275786Y-86198571D01*
X135275786Y-86198571D02*
X135204358Y-86341428D01*
X135204358Y-86341428D02*
X135132929Y-86412857D01*
X135132929Y-86412857D02*
X134990072Y-86484285D01*
X134990072Y-86484285D02*
X134561500Y-86484285D01*
X134561500Y-86484285D02*
X134418643Y-86412857D01*
X134418643Y-86412857D02*
X134347215Y-86341428D01*
X134347215Y-86341428D02*
X134275786Y-86198571D01*
X134275786Y-86198571D02*
X134275786Y-85912857D01*
X134275786Y-85912857D02*
X134347215Y-85770000D01*
X134275786Y-84412857D02*
X135275786Y-84412857D01*
X134275786Y-85055714D02*
X135061500Y-85055714D01*
X135061500Y-85055714D02*
X135204358Y-84984285D01*
X135204358Y-84984285D02*
X135275786Y-84841428D01*
X135275786Y-84841428D02*
X135275786Y-84627142D01*
X135275786Y-84627142D02*
X135204358Y-84484285D01*
X135204358Y-84484285D02*
X135132929Y-84412857D01*
X135275786Y-83484285D02*
X135204358Y-83627142D01*
X135204358Y-83627142D02*
X135061500Y-83698571D01*
X135061500Y-83698571D02*
X133775786Y-83698571D01*
X135204358Y-82341428D02*
X135275786Y-82484285D01*
X135275786Y-82484285D02*
X135275786Y-82770000D01*
X135275786Y-82770000D02*
X135204358Y-82912857D01*
X135204358Y-82912857D02*
X135061500Y-82984285D01*
X135061500Y-82984285D02*
X134490072Y-82984285D01*
X134490072Y-82984285D02*
X134347215Y-82912857D01*
X134347215Y-82912857D02*
X134275786Y-82770000D01*
X134275786Y-82770000D02*
X134275786Y-82484285D01*
X134275786Y-82484285D02*
X134347215Y-82341428D01*
X134347215Y-82341428D02*
X134490072Y-82270000D01*
X134490072Y-82270000D02*
X134632929Y-82270000D01*
X134632929Y-82270000D02*
X134775786Y-82984285D01*
D10*
X114214286Y-76124819D02*
X114785714Y-76124819D01*
X114500000Y-77124819D02*
X114500000Y-76124819D01*
X115119048Y-77124819D02*
X115119048Y-76124819D01*
X115119048Y-76124819D02*
X115500000Y-76124819D01*
X115500000Y-76124819D02*
X115595238Y-76172438D01*
X115595238Y-76172438D02*
X115642857Y-76220057D01*
X115642857Y-76220057D02*
X115690476Y-76315295D01*
X115690476Y-76315295D02*
X115690476Y-76458152D01*
X115690476Y-76458152D02*
X115642857Y-76553390D01*
X115642857Y-76553390D02*
X115595238Y-76601009D01*
X115595238Y-76601009D02*
X115500000Y-76648628D01*
X115500000Y-76648628D02*
X115119048Y-76648628D01*
X160954819Y-106095238D02*
X159954819Y-106095238D01*
X159954819Y-106095238D02*
X159954819Y-105714286D01*
X159954819Y-105714286D02*
X160002438Y-105619048D01*
X160002438Y-105619048D02*
X160050057Y-105571429D01*
X160050057Y-105571429D02*
X160145295Y-105523810D01*
X160145295Y-105523810D02*
X160288152Y-105523810D01*
X160288152Y-105523810D02*
X160383390Y-105571429D01*
X160383390Y-105571429D02*
X160431009Y-105619048D01*
X160431009Y-105619048D02*
X160478628Y-105714286D01*
X160478628Y-105714286D02*
X160478628Y-106095238D01*
X160954819Y-105095238D02*
X160288152Y-105095238D01*
X159954819Y-105095238D02*
X160002438Y-105142857D01*
X160002438Y-105142857D02*
X160050057Y-105095238D01*
X160050057Y-105095238D02*
X160002438Y-105047619D01*
X160002438Y-105047619D02*
X159954819Y-105095238D01*
X159954819Y-105095238D02*
X160050057Y-105095238D01*
X160288152Y-104619048D02*
X160954819Y-104619048D01*
X160383390Y-104619048D02*
X160335771Y-104571429D01*
X160335771Y-104571429D02*
X160288152Y-104476191D01*
X160288152Y-104476191D02*
X160288152Y-104333334D01*
X160288152Y-104333334D02*
X160335771Y-104238096D01*
X160335771Y-104238096D02*
X160431009Y-104190477D01*
X160431009Y-104190477D02*
X160954819Y-104190477D01*
X160907200Y-103761905D02*
X160954819Y-103666667D01*
X160954819Y-103666667D02*
X160954819Y-103476191D01*
X160954819Y-103476191D02*
X160907200Y-103380953D01*
X160907200Y-103380953D02*
X160811961Y-103333334D01*
X160811961Y-103333334D02*
X160764342Y-103333334D01*
X160764342Y-103333334D02*
X160669104Y-103380953D01*
X160669104Y-103380953D02*
X160621485Y-103476191D01*
X160621485Y-103476191D02*
X160621485Y-103619048D01*
X160621485Y-103619048D02*
X160573866Y-103714286D01*
X160573866Y-103714286D02*
X160478628Y-103761905D01*
X160478628Y-103761905D02*
X160431009Y-103761905D01*
X160431009Y-103761905D02*
X160335771Y-103714286D01*
X160335771Y-103714286D02*
X160288152Y-103619048D01*
X160288152Y-103619048D02*
X160288152Y-103476191D01*
X160288152Y-103476191D02*
X160335771Y-103380953D01*
X161050057Y-103142858D02*
X161050057Y-102380953D01*
X160288152Y-102285714D02*
X160288152Y-101904762D01*
X159954819Y-102142857D02*
X160811961Y-102142857D01*
X160811961Y-102142857D02*
X160907200Y-102095238D01*
X160907200Y-102095238D02*
X160954819Y-102000000D01*
X160954819Y-102000000D02*
X160954819Y-101904762D01*
X160954819Y-101428571D02*
X160907200Y-101523809D01*
X160907200Y-101523809D02*
X160859580Y-101571428D01*
X160859580Y-101571428D02*
X160764342Y-101619047D01*
X160764342Y-101619047D02*
X160478628Y-101619047D01*
X160478628Y-101619047D02*
X160383390Y-101571428D01*
X160383390Y-101571428D02*
X160335771Y-101523809D01*
X160335771Y-101523809D02*
X160288152Y-101428571D01*
X160288152Y-101428571D02*
X160288152Y-101285714D01*
X160288152Y-101285714D02*
X160335771Y-101190476D01*
X160335771Y-101190476D02*
X160383390Y-101142857D01*
X160383390Y-101142857D02*
X160478628Y-101095238D01*
X160478628Y-101095238D02*
X160764342Y-101095238D01*
X160764342Y-101095238D02*
X160859580Y-101142857D01*
X160859580Y-101142857D02*
X160907200Y-101190476D01*
X160907200Y-101190476D02*
X160954819Y-101285714D01*
X160954819Y-101285714D02*
X160954819Y-101428571D01*
X161050057Y-100904762D02*
X161050057Y-100142857D01*
X160954819Y-99904761D02*
X160288152Y-99904761D01*
X160478628Y-99904761D02*
X160383390Y-99857142D01*
X160383390Y-99857142D02*
X160335771Y-99809523D01*
X160335771Y-99809523D02*
X160288152Y-99714285D01*
X160288152Y-99714285D02*
X160288152Y-99619047D01*
X160907200Y-98904761D02*
X160954819Y-98999999D01*
X160954819Y-98999999D02*
X160954819Y-99190475D01*
X160954819Y-99190475D02*
X160907200Y-99285713D01*
X160907200Y-99285713D02*
X160811961Y-99333332D01*
X160811961Y-99333332D02*
X160431009Y-99333332D01*
X160431009Y-99333332D02*
X160335771Y-99285713D01*
X160335771Y-99285713D02*
X160288152Y-99190475D01*
X160288152Y-99190475D02*
X160288152Y-98999999D01*
X160288152Y-98999999D02*
X160335771Y-98904761D01*
X160335771Y-98904761D02*
X160431009Y-98857142D01*
X160431009Y-98857142D02*
X160526247Y-98857142D01*
X160526247Y-98857142D02*
X160621485Y-99333332D01*
X160954819Y-98285713D02*
X160907200Y-98380951D01*
X160907200Y-98380951D02*
X160811961Y-98428570D01*
X160811961Y-98428570D02*
X159954819Y-98428570D01*
X160954819Y-97476189D02*
X160431009Y-97476189D01*
X160431009Y-97476189D02*
X160335771Y-97523808D01*
X160335771Y-97523808D02*
X160288152Y-97619046D01*
X160288152Y-97619046D02*
X160288152Y-97809522D01*
X160288152Y-97809522D02*
X160335771Y-97904760D01*
X160907200Y-97476189D02*
X160954819Y-97571427D01*
X160954819Y-97571427D02*
X160954819Y-97809522D01*
X160954819Y-97809522D02*
X160907200Y-97904760D01*
X160907200Y-97904760D02*
X160811961Y-97952379D01*
X160811961Y-97952379D02*
X160716723Y-97952379D01*
X160716723Y-97952379D02*
X160621485Y-97904760D01*
X160621485Y-97904760D02*
X160573866Y-97809522D01*
X160573866Y-97809522D02*
X160573866Y-97571427D01*
X160573866Y-97571427D02*
X160526247Y-97476189D01*
X160288152Y-97095236D02*
X160954819Y-96857141D01*
X160288152Y-96619046D02*
X160954819Y-96857141D01*
X160954819Y-96857141D02*
X161192914Y-96952379D01*
X161192914Y-96952379D02*
X161240533Y-96999998D01*
X161240533Y-96999998D02*
X161288152Y-97095236D01*
X160907200Y-96285712D02*
X160954819Y-96190474D01*
X160954819Y-96190474D02*
X160954819Y-95999998D01*
X160954819Y-95999998D02*
X160907200Y-95904760D01*
X160907200Y-95904760D02*
X160811961Y-95857141D01*
X160811961Y-95857141D02*
X160764342Y-95857141D01*
X160764342Y-95857141D02*
X160669104Y-95904760D01*
X160669104Y-95904760D02*
X160621485Y-95999998D01*
X160621485Y-95999998D02*
X160621485Y-96142855D01*
X160621485Y-96142855D02*
X160573866Y-96238093D01*
X160573866Y-96238093D02*
X160478628Y-96285712D01*
X160478628Y-96285712D02*
X160431009Y-96285712D01*
X160431009Y-96285712D02*
X160335771Y-96238093D01*
X160335771Y-96238093D02*
X160288152Y-96142855D01*
X160288152Y-96142855D02*
X160288152Y-95999998D01*
X160288152Y-95999998D02*
X160335771Y-95904760D01*
D15*
X109500000Y-113830000D02*
X109500000Y-113900000D01*
X110870000Y-112460000D02*
G75*
G02*
X108130000Y-112460000I-1370000J0D01*
G01*
X108130000Y-112460000D02*
G75*
G02*
X110870000Y-112460000I1370000J0D01*
G01*
X108170000Y-120170000D02*
X109500000Y-120170000D01*
X108170000Y-121500000D02*
X108170000Y-120170000D01*
X108170000Y-122770000D02*
X108170000Y-125370000D01*
X108170000Y-122770000D02*
X110830000Y-122770000D01*
X108170000Y-125370000D02*
X110830000Y-125370000D01*
X110830000Y-122770000D02*
X110830000Y-125370000D01*
X108930000Y-103230000D02*
X108930000Y-101900000D01*
X110260000Y-103230000D02*
X108930000Y-103230000D01*
X111530000Y-100570000D02*
X116670000Y-100570000D01*
X111530000Y-103230000D02*
X111530000Y-100570000D01*
X111530000Y-103230000D02*
X116670000Y-103230000D01*
X116670000Y-103230000D02*
X116670000Y-100570000D01*
X110130000Y-84330000D02*
X110130000Y-83000000D01*
X111460000Y-84330000D02*
X110130000Y-84330000D01*
X112730000Y-81670000D02*
X117870000Y-81670000D01*
X112730000Y-84330000D02*
X112730000Y-81670000D01*
X112730000Y-84330000D02*
X117870000Y-84330000D01*
X117870000Y-84330000D02*
X117870000Y-81670000D01*
X112900000Y-89425000D02*
X112900000Y-89495000D01*
X114270000Y-88055000D02*
G75*
G02*
X111530000Y-88055000I-1370000J0D01*
G01*
X111530000Y-88055000D02*
G75*
G02*
X114270000Y-88055000I1370000J0D01*
G01*
X125720000Y-82190000D02*
X125720000Y-83520000D01*
X125720000Y-82190000D02*
X125720000Y-83520000D01*
X113670000Y-77670000D02*
X115000000Y-77670000D01*
X113670000Y-79000000D02*
X113670000Y-77670000D01*
X113670000Y-80270000D02*
X113670000Y-80330000D01*
X113670000Y-80270000D02*
X116330000Y-80270000D01*
X113670000Y-80330000D02*
X116330000Y-80330000D01*
X116330000Y-80270000D02*
X116330000Y-80330000D01*
X155670000Y-109390000D02*
X155670000Y-91550000D01*
X158330000Y-91550000D02*
X155670000Y-91550000D01*
X158330000Y-109390000D02*
X155670000Y-109390000D01*
X158330000Y-109390000D02*
X158330000Y-91550000D01*
X158330000Y-110660000D02*
X158330000Y-111990000D01*
X158330000Y-111990000D02*
X157000000Y-111990000D01*
X110510000Y-94755000D02*
X110510000Y-97845000D01*
X110510000Y-94755170D02*
G75*
G02*
X116060000Y-96300462I2560000J-1544830D01*
G01*
X116060000Y-96299538D02*
G75*
G02*
X110510000Y-97844830I-2990000J-462D01*
G01*
X115570000Y-96300000D02*
G75*
G02*
X110570000Y-96300000I-2500000J0D01*
G01*
X110570000Y-96300000D02*
G75*
G02*
X115570000Y-96300000I2500000J0D01*
G01*
%LPC*%
D16*
X155000000Y-122000000D03*
D17*
X158000000Y-133000000D03*
D18*
X109500000Y-112460000D03*
D19*
X109500000Y-115000000D03*
D20*
X109500000Y-121500000D03*
D17*
X110000000Y-133000000D03*
X158000000Y-75000000D03*
D20*
X110260000Y-101900000D03*
D21*
X112800000Y-101900000D03*
X115340000Y-101900000D03*
D20*
X111460000Y-83000000D03*
D21*
X114000000Y-83000000D03*
X116540000Y-83000000D03*
D18*
X112900000Y-88055000D03*
D19*
X112900000Y-90595000D03*
D22*
X121390000Y-75140000D03*
X144250000Y-75140000D03*
D21*
X121390000Y-77680000D03*
X144250000Y-77680000D03*
X121390000Y-80220000D03*
X144250000Y-80220000D03*
X121390000Y-82760000D03*
X144250000Y-82760000D03*
X121390000Y-85300000D03*
X144250000Y-85300000D03*
X121390000Y-87840000D03*
X144250000Y-87840000D03*
X121390000Y-90380000D03*
X144250000Y-90380000D03*
X121390000Y-92920000D03*
X144250000Y-92920000D03*
X121390000Y-95460000D03*
X144250000Y-95460000D03*
X121390000Y-98000000D03*
X144250000Y-98000000D03*
X121390000Y-100540000D03*
X144250000Y-100540000D03*
X121390000Y-103080000D03*
X144250000Y-103080000D03*
X121390000Y-105620000D03*
X144250000Y-105620000D03*
X121390000Y-108160000D03*
X144250000Y-108160000D03*
X121390000Y-110700000D03*
X144250000Y-110700000D03*
X121390000Y-113240000D03*
X144250000Y-113240000D03*
X121390000Y-115780000D03*
X144250000Y-115780000D03*
X121390000Y-118320000D03*
X144250000Y-118320000D03*
X121390000Y-120860000D03*
X144250000Y-120860000D03*
X121390000Y-123400000D03*
X144250000Y-123400000D03*
D22*
X121380000Y-125940000D03*
D21*
X144250000Y-125940000D03*
D22*
X121390000Y-128540000D03*
D21*
X144250000Y-128480000D03*
D20*
X115000000Y-79000000D03*
D17*
X110000000Y-75000000D03*
D20*
X157000000Y-110660000D03*
D21*
X157000000Y-108120000D03*
X157000000Y-105580000D03*
X157000000Y-103040000D03*
X157000000Y-100500000D03*
X157000000Y-97960000D03*
X157000000Y-95420000D03*
X157000000Y-92880000D03*
D23*
X111800000Y-96300000D03*
D24*
X114340000Y-96300000D03*
D16*
X155000000Y-85000000D03*
%LPD*%
M02*
