M48
; DRILL file {KiCad 8.0.5-8.0.5-0~ubuntu22.04.1} date 2024-09-10T12:37:44+1000
; FORMAT={-:-/ absolute / metric / decimal}
; #@! TF.CreationDate,2024-09-10T12:37:44+10:00
; #@! TF.GenerationSoftware,Kicad,Pcbnew,8.0.5-8.0.5-0~ubuntu22.04.1
; #@! TF.FileFunction,Plated,1,2,PTH
FMAT,2
METRIC
; #@! TA.AperFunction,Plated,PTH,ComponentDrill
T1C0.800
; #@! TA.AperFunction,Plated,PTH,ComponentDrill
T2C0.900
; #@! TA.AperFunction,Plated,PTH,ComponentDrill
T3C1.000
; #@! TA.AperFunction,Plated,PTH,ComponentDrill
T4C3.500
%
G90
G05
T1
X109.5Y-112.46
X109.5Y-115.0
X112.9Y-88.055
X112.9Y-90.595
T2
X111.8Y-96.3
X114.34Y-96.3
T3
X109.5Y-121.5
X109.5Y-124.04
X110.26Y-101.9
X111.46Y-83.0
X112.8Y-101.9
X114.0Y-83.0
X115.0Y-79.0
X115.34Y-101.9
X116.54Y-83.0
X121.38Y-125.94
X121.39Y-75.14
X121.39Y-77.68
X121.39Y-80.22
X121.39Y-82.76
X121.39Y-85.3
X121.39Y-87.84
X121.39Y-90.38
X121.39Y-92.92
X121.39Y-95.46
X121.39Y-98.0
X121.39Y-100.54
X121.39Y-103.08
X121.39Y-105.62
X121.39Y-108.16
X121.39Y-110.7
X121.39Y-113.24
X121.39Y-115.78
X121.39Y-118.32
X121.39Y-120.86
X121.39Y-123.4
X121.39Y-128.54
X144.25Y-75.14
X144.25Y-77.68
X144.25Y-80.22
X144.25Y-82.76
X144.25Y-85.3
X144.25Y-87.84
X144.25Y-90.38
X144.25Y-92.92
X144.25Y-95.46
X144.25Y-98.0
X144.25Y-100.54
X144.25Y-103.08
X144.25Y-105.62
X144.25Y-108.16
X144.25Y-110.7
X144.25Y-113.24
X144.25Y-115.78
X144.25Y-118.32
X144.25Y-120.86
X144.25Y-123.4
X144.25Y-125.94
X144.25Y-128.48
X157.0Y-92.88
X157.0Y-95.42
X157.0Y-97.96
X157.0Y-100.5
X157.0Y-103.04
X157.0Y-105.58
X157.0Y-108.12
X157.0Y-110.66
T4
X155.0Y-85.0
X155.0Y-122.0
M30
