%TF.GenerationSoftware,KiCad,Pcbnew,8.0.5-8.0.5-0~ubuntu22.04.1*%
%TF.CreationDate,2024-09-10T12:38:14+10:00*%
%TF.ProjectId,Fire_Sytem_10,46697265-5f53-4797-9465-6d5f31302e6b,rev?*%
%TF.SameCoordinates,Original*%
%TF.FileFunction,Drillmap*%
%TF.FilePolarity,Positive*%
%FSLAX45Y45*%
G04 Gerber Fmt 4.5, Leading zero omitted, Abs format (unit mm)*
G04 Created by KiCad (PCBNEW 8.0.5-8.0.5-0~ubuntu22.04.1) date 2024-09-10 12:38:14*
%MOMM*%
%LPD*%
G01*
G04 APERTURE LIST*
%ADD10C,0.050000*%
%ADD11C,0.200000*%
%ADD12C,0.320000*%
G04 APERTURE END LIST*
D10*
X15500000Y-6950000D02*
X15800000Y-6950000D01*
X16350000Y-13300000D02*
G75*
G02*
X15800000Y-13850000I-550000J0D01*
G01*
X11000000Y-13850000D02*
G75*
G02*
X10450000Y-13300000I0J550000D01*
G01*
X16350000Y-7500000D02*
X16350000Y-13300000D01*
X10450000Y-7500000D02*
X10450000Y-13300000D01*
X15800000Y-13850000D02*
X11000000Y-13850000D01*
X10450000Y-7500000D02*
G75*
G02*
X11000000Y-6950000I550000J0D01*
G01*
X11000000Y-6950000D02*
X15500000Y-6950000D01*
X15800000Y-6950000D02*
G75*
G02*
X16350000Y-7500000I0J-550000D01*
G01*
D11*
D12*
X10840000Y-7340000D02*
X11160000Y-7660000D01*
X11160000Y-7340000D02*
X10840000Y-7660000D01*
X10840000Y-13140000D02*
X11160000Y-13460000D01*
X11160000Y-13140000D02*
X10840000Y-13460000D01*
X15640000Y-7340000D02*
X15960000Y-7660000D01*
X15960000Y-7340000D02*
X15640000Y-7660000D01*
X15640000Y-13140000D02*
X15960000Y-13460000D01*
X15960000Y-13140000D02*
X15640000Y-13460000D01*
D11*
X10708277Y-14163984D02*
X10708277Y-13963984D01*
X10708277Y-13963984D02*
X10755896Y-13963984D01*
X10755896Y-13963984D02*
X10784467Y-13973508D01*
X10784467Y-13973508D02*
X10803515Y-13992555D01*
X10803515Y-13992555D02*
X10813039Y-14011603D01*
X10813039Y-14011603D02*
X10822563Y-14049698D01*
X10822563Y-14049698D02*
X10822563Y-14078269D01*
X10822563Y-14078269D02*
X10813039Y-14116365D01*
X10813039Y-14116365D02*
X10803515Y-14135412D01*
X10803515Y-14135412D02*
X10784467Y-14154460D01*
X10784467Y-14154460D02*
X10755896Y-14163984D01*
X10755896Y-14163984D02*
X10708277Y-14163984D01*
X10908277Y-14163984D02*
X10908277Y-14030650D01*
X10908277Y-14068746D02*
X10917801Y-14049698D01*
X10917801Y-14049698D02*
X10927324Y-14040174D01*
X10927324Y-14040174D02*
X10946372Y-14030650D01*
X10946372Y-14030650D02*
X10965420Y-14030650D01*
X11032086Y-14163984D02*
X11032086Y-14030650D01*
X11032086Y-13963984D02*
X11022563Y-13973508D01*
X11022563Y-13973508D02*
X11032086Y-13983031D01*
X11032086Y-13983031D02*
X11041610Y-13973508D01*
X11041610Y-13973508D02*
X11032086Y-13963984D01*
X11032086Y-13963984D02*
X11032086Y-13983031D01*
X11155896Y-14163984D02*
X11136848Y-14154460D01*
X11136848Y-14154460D02*
X11127324Y-14135412D01*
X11127324Y-14135412D02*
X11127324Y-13963984D01*
X11260658Y-14163984D02*
X11241610Y-14154460D01*
X11241610Y-14154460D02*
X11232086Y-14135412D01*
X11232086Y-14135412D02*
X11232086Y-13963984D01*
X11489229Y-14163984D02*
X11489229Y-13963984D01*
X11489229Y-13963984D02*
X11555896Y-14106841D01*
X11555896Y-14106841D02*
X11622562Y-13963984D01*
X11622562Y-13963984D02*
X11622562Y-14163984D01*
X11803515Y-14163984D02*
X11803515Y-14059222D01*
X11803515Y-14059222D02*
X11793991Y-14040174D01*
X11793991Y-14040174D02*
X11774943Y-14030650D01*
X11774943Y-14030650D02*
X11736848Y-14030650D01*
X11736848Y-14030650D02*
X11717801Y-14040174D01*
X11803515Y-14154460D02*
X11784467Y-14163984D01*
X11784467Y-14163984D02*
X11736848Y-14163984D01*
X11736848Y-14163984D02*
X11717801Y-14154460D01*
X11717801Y-14154460D02*
X11708277Y-14135412D01*
X11708277Y-14135412D02*
X11708277Y-14116365D01*
X11708277Y-14116365D02*
X11717801Y-14097317D01*
X11717801Y-14097317D02*
X11736848Y-14087793D01*
X11736848Y-14087793D02*
X11784467Y-14087793D01*
X11784467Y-14087793D02*
X11803515Y-14078269D01*
X11898753Y-14030650D02*
X11898753Y-14230650D01*
X11898753Y-14040174D02*
X11917801Y-14030650D01*
X11917801Y-14030650D02*
X11955896Y-14030650D01*
X11955896Y-14030650D02*
X11974943Y-14040174D01*
X11974943Y-14040174D02*
X11984467Y-14049698D01*
X11984467Y-14049698D02*
X11993991Y-14068746D01*
X11993991Y-14068746D02*
X11993991Y-14125888D01*
X11993991Y-14125888D02*
X11984467Y-14144936D01*
X11984467Y-14144936D02*
X11974943Y-14154460D01*
X11974943Y-14154460D02*
X11955896Y-14163984D01*
X11955896Y-14163984D02*
X11917801Y-14163984D01*
X11917801Y-14163984D02*
X11898753Y-14154460D01*
X12079705Y-14144936D02*
X12089229Y-14154460D01*
X12089229Y-14154460D02*
X12079705Y-14163984D01*
X12079705Y-14163984D02*
X12070182Y-14154460D01*
X12070182Y-14154460D02*
X12079705Y-14144936D01*
X12079705Y-14144936D02*
X12079705Y-14163984D01*
X12079705Y-14040174D02*
X12089229Y-14049698D01*
X12089229Y-14049698D02*
X12079705Y-14059222D01*
X12079705Y-14059222D02*
X12070182Y-14049698D01*
X12070182Y-14049698D02*
X12079705Y-14040174D01*
X12079705Y-14040174D02*
X12079705Y-14059222D01*
X10247500Y-14392500D02*
X10447500Y-14592500D01*
X10447500Y-14392500D02*
X10247500Y-14592500D01*
X10689229Y-14383984D02*
X10813039Y-14383984D01*
X10813039Y-14383984D02*
X10746372Y-14460174D01*
X10746372Y-14460174D02*
X10774944Y-14460174D01*
X10774944Y-14460174D02*
X10793991Y-14469698D01*
X10793991Y-14469698D02*
X10803515Y-14479222D01*
X10803515Y-14479222D02*
X10813039Y-14498269D01*
X10813039Y-14498269D02*
X10813039Y-14545888D01*
X10813039Y-14545888D02*
X10803515Y-14564936D01*
X10803515Y-14564936D02*
X10793991Y-14574460D01*
X10793991Y-14574460D02*
X10774944Y-14583984D01*
X10774944Y-14583984D02*
X10717801Y-14583984D01*
X10717801Y-14583984D02*
X10698753Y-14574460D01*
X10698753Y-14574460D02*
X10689229Y-14564936D01*
X10898753Y-14564936D02*
X10908277Y-14574460D01*
X10908277Y-14574460D02*
X10898753Y-14583984D01*
X10898753Y-14583984D02*
X10889229Y-14574460D01*
X10889229Y-14574460D02*
X10898753Y-14564936D01*
X10898753Y-14564936D02*
X10898753Y-14583984D01*
X10984467Y-14403031D02*
X10993991Y-14393508D01*
X10993991Y-14393508D02*
X11013039Y-14383984D01*
X11013039Y-14383984D02*
X11060658Y-14383984D01*
X11060658Y-14383984D02*
X11079705Y-14393508D01*
X11079705Y-14393508D02*
X11089229Y-14403031D01*
X11089229Y-14403031D02*
X11098753Y-14422079D01*
X11098753Y-14422079D02*
X11098753Y-14441127D01*
X11098753Y-14441127D02*
X11089229Y-14469698D01*
X11089229Y-14469698D02*
X10974944Y-14583984D01*
X10974944Y-14583984D02*
X11098753Y-14583984D01*
X11222562Y-14383984D02*
X11241610Y-14383984D01*
X11241610Y-14383984D02*
X11260658Y-14393508D01*
X11260658Y-14393508D02*
X11270182Y-14403031D01*
X11270182Y-14403031D02*
X11279705Y-14422079D01*
X11279705Y-14422079D02*
X11289229Y-14460174D01*
X11289229Y-14460174D02*
X11289229Y-14507793D01*
X11289229Y-14507793D02*
X11279705Y-14545888D01*
X11279705Y-14545888D02*
X11270182Y-14564936D01*
X11270182Y-14564936D02*
X11260658Y-14574460D01*
X11260658Y-14574460D02*
X11241610Y-14583984D01*
X11241610Y-14583984D02*
X11222562Y-14583984D01*
X11222562Y-14583984D02*
X11203515Y-14574460D01*
X11203515Y-14574460D02*
X11193991Y-14564936D01*
X11193991Y-14564936D02*
X11184467Y-14545888D01*
X11184467Y-14545888D02*
X11174944Y-14507793D01*
X11174944Y-14507793D02*
X11174944Y-14460174D01*
X11174944Y-14460174D02*
X11184467Y-14422079D01*
X11184467Y-14422079D02*
X11193991Y-14403031D01*
X11193991Y-14403031D02*
X11203515Y-14393508D01*
X11203515Y-14393508D02*
X11222562Y-14383984D01*
X11413039Y-14383984D02*
X11432086Y-14383984D01*
X11432086Y-14383984D02*
X11451134Y-14393508D01*
X11451134Y-14393508D02*
X11460658Y-14403031D01*
X11460658Y-14403031D02*
X11470182Y-14422079D01*
X11470182Y-14422079D02*
X11479705Y-14460174D01*
X11479705Y-14460174D02*
X11479705Y-14507793D01*
X11479705Y-14507793D02*
X11470182Y-14545888D01*
X11470182Y-14545888D02*
X11460658Y-14564936D01*
X11460658Y-14564936D02*
X11451134Y-14574460D01*
X11451134Y-14574460D02*
X11432086Y-14583984D01*
X11432086Y-14583984D02*
X11413039Y-14583984D01*
X11413039Y-14583984D02*
X11393991Y-14574460D01*
X11393991Y-14574460D02*
X11384467Y-14564936D01*
X11384467Y-14564936D02*
X11374943Y-14545888D01*
X11374943Y-14545888D02*
X11365420Y-14507793D01*
X11365420Y-14507793D02*
X11365420Y-14460174D01*
X11365420Y-14460174D02*
X11374943Y-14422079D01*
X11374943Y-14422079D02*
X11384467Y-14403031D01*
X11384467Y-14403031D02*
X11393991Y-14393508D01*
X11393991Y-14393508D02*
X11413039Y-14383984D01*
X11565420Y-14583984D02*
X11565420Y-14450650D01*
X11565420Y-14469698D02*
X11574943Y-14460174D01*
X11574943Y-14460174D02*
X11593991Y-14450650D01*
X11593991Y-14450650D02*
X11622563Y-14450650D01*
X11622563Y-14450650D02*
X11641610Y-14460174D01*
X11641610Y-14460174D02*
X11651134Y-14479222D01*
X11651134Y-14479222D02*
X11651134Y-14583984D01*
X11651134Y-14479222D02*
X11660658Y-14460174D01*
X11660658Y-14460174D02*
X11679705Y-14450650D01*
X11679705Y-14450650D02*
X11708277Y-14450650D01*
X11708277Y-14450650D02*
X11727324Y-14460174D01*
X11727324Y-14460174D02*
X11736848Y-14479222D01*
X11736848Y-14479222D02*
X11736848Y-14583984D01*
X11832086Y-14583984D02*
X11832086Y-14450650D01*
X11832086Y-14469698D02*
X11841610Y-14460174D01*
X11841610Y-14460174D02*
X11860658Y-14450650D01*
X11860658Y-14450650D02*
X11889229Y-14450650D01*
X11889229Y-14450650D02*
X11908277Y-14460174D01*
X11908277Y-14460174D02*
X11917801Y-14479222D01*
X11917801Y-14479222D02*
X11917801Y-14583984D01*
X11917801Y-14479222D02*
X11927324Y-14460174D01*
X11927324Y-14460174D02*
X11946372Y-14450650D01*
X11946372Y-14450650D02*
X11974943Y-14450650D01*
X11974943Y-14450650D02*
X11993991Y-14460174D01*
X11993991Y-14460174D02*
X12003515Y-14479222D01*
X12003515Y-14479222D02*
X12003515Y-14583984D01*
X12393991Y-14374460D02*
X12222563Y-14631603D01*
X12651134Y-14383984D02*
X12670182Y-14383984D01*
X12670182Y-14383984D02*
X12689229Y-14393508D01*
X12689229Y-14393508D02*
X12698753Y-14403031D01*
X12698753Y-14403031D02*
X12708277Y-14422079D01*
X12708277Y-14422079D02*
X12717801Y-14460174D01*
X12717801Y-14460174D02*
X12717801Y-14507793D01*
X12717801Y-14507793D02*
X12708277Y-14545888D01*
X12708277Y-14545888D02*
X12698753Y-14564936D01*
X12698753Y-14564936D02*
X12689229Y-14574460D01*
X12689229Y-14574460D02*
X12670182Y-14583984D01*
X12670182Y-14583984D02*
X12651134Y-14583984D01*
X12651134Y-14583984D02*
X12632086Y-14574460D01*
X12632086Y-14574460D02*
X12622563Y-14564936D01*
X12622563Y-14564936D02*
X12613039Y-14545888D01*
X12613039Y-14545888D02*
X12603515Y-14507793D01*
X12603515Y-14507793D02*
X12603515Y-14460174D01*
X12603515Y-14460174D02*
X12613039Y-14422079D01*
X12613039Y-14422079D02*
X12622563Y-14403031D01*
X12622563Y-14403031D02*
X12632086Y-14393508D01*
X12632086Y-14393508D02*
X12651134Y-14383984D01*
X12803515Y-14564936D02*
X12813039Y-14574460D01*
X12813039Y-14574460D02*
X12803515Y-14583984D01*
X12803515Y-14583984D02*
X12793991Y-14574460D01*
X12793991Y-14574460D02*
X12803515Y-14564936D01*
X12803515Y-14564936D02*
X12803515Y-14583984D01*
X13003515Y-14583984D02*
X12889229Y-14583984D01*
X12946372Y-14583984D02*
X12946372Y-14383984D01*
X12946372Y-14383984D02*
X12927325Y-14412555D01*
X12927325Y-14412555D02*
X12908277Y-14431603D01*
X12908277Y-14431603D02*
X12889229Y-14441127D01*
X13079706Y-14403031D02*
X13089229Y-14393508D01*
X13089229Y-14393508D02*
X13108277Y-14383984D01*
X13108277Y-14383984D02*
X13155896Y-14383984D01*
X13155896Y-14383984D02*
X13174944Y-14393508D01*
X13174944Y-14393508D02*
X13184467Y-14403031D01*
X13184467Y-14403031D02*
X13193991Y-14422079D01*
X13193991Y-14422079D02*
X13193991Y-14441127D01*
X13193991Y-14441127D02*
X13184467Y-14469698D01*
X13184467Y-14469698D02*
X13070182Y-14583984D01*
X13070182Y-14583984D02*
X13193991Y-14583984D01*
X13365420Y-14383984D02*
X13327325Y-14383984D01*
X13327325Y-14383984D02*
X13308277Y-14393508D01*
X13308277Y-14393508D02*
X13298753Y-14403031D01*
X13298753Y-14403031D02*
X13279706Y-14431603D01*
X13279706Y-14431603D02*
X13270182Y-14469698D01*
X13270182Y-14469698D02*
X13270182Y-14545888D01*
X13270182Y-14545888D02*
X13279706Y-14564936D01*
X13279706Y-14564936D02*
X13289229Y-14574460D01*
X13289229Y-14574460D02*
X13308277Y-14583984D01*
X13308277Y-14583984D02*
X13346372Y-14583984D01*
X13346372Y-14583984D02*
X13365420Y-14574460D01*
X13365420Y-14574460D02*
X13374944Y-14564936D01*
X13374944Y-14564936D02*
X13384467Y-14545888D01*
X13384467Y-14545888D02*
X13384467Y-14498269D01*
X13384467Y-14498269D02*
X13374944Y-14479222D01*
X13374944Y-14479222D02*
X13365420Y-14469698D01*
X13365420Y-14469698D02*
X13346372Y-14460174D01*
X13346372Y-14460174D02*
X13308277Y-14460174D01*
X13308277Y-14460174D02*
X13289229Y-14469698D01*
X13289229Y-14469698D02*
X13279706Y-14479222D01*
X13279706Y-14479222D02*
X13270182Y-14498269D01*
X13508277Y-14383984D02*
X13527325Y-14383984D01*
X13527325Y-14383984D02*
X13546372Y-14393508D01*
X13546372Y-14393508D02*
X13555896Y-14403031D01*
X13555896Y-14403031D02*
X13565420Y-14422079D01*
X13565420Y-14422079D02*
X13574944Y-14460174D01*
X13574944Y-14460174D02*
X13574944Y-14507793D01*
X13574944Y-14507793D02*
X13565420Y-14545888D01*
X13565420Y-14545888D02*
X13555896Y-14564936D01*
X13555896Y-14564936D02*
X13546372Y-14574460D01*
X13546372Y-14574460D02*
X13527325Y-14583984D01*
X13527325Y-14583984D02*
X13508277Y-14583984D01*
X13508277Y-14583984D02*
X13489229Y-14574460D01*
X13489229Y-14574460D02*
X13479706Y-14564936D01*
X13479706Y-14564936D02*
X13470182Y-14545888D01*
X13470182Y-14545888D02*
X13460658Y-14507793D01*
X13460658Y-14507793D02*
X13460658Y-14460174D01*
X13460658Y-14460174D02*
X13470182Y-14422079D01*
X13470182Y-14422079D02*
X13479706Y-14403031D01*
X13479706Y-14403031D02*
X13489229Y-14393508D01*
X13489229Y-14393508D02*
X13508277Y-14383984D01*
X13651134Y-14383984D02*
X13651134Y-14422079D01*
X13727325Y-14383984D02*
X13727325Y-14422079D01*
X14022563Y-14660174D02*
X14013039Y-14650650D01*
X14013039Y-14650650D02*
X13993991Y-14622079D01*
X13993991Y-14622079D02*
X13984468Y-14603031D01*
X13984468Y-14603031D02*
X13974944Y-14574460D01*
X13974944Y-14574460D02*
X13965420Y-14526841D01*
X13965420Y-14526841D02*
X13965420Y-14488746D01*
X13965420Y-14488746D02*
X13974944Y-14441127D01*
X13974944Y-14441127D02*
X13984468Y-14412555D01*
X13984468Y-14412555D02*
X13993991Y-14393508D01*
X13993991Y-14393508D02*
X14013039Y-14364936D01*
X14013039Y-14364936D02*
X14022563Y-14355412D01*
X14184468Y-14450650D02*
X14184468Y-14583984D01*
X14136848Y-14374460D02*
X14089229Y-14517317D01*
X14089229Y-14517317D02*
X14213039Y-14517317D01*
X14441610Y-14583984D02*
X14441610Y-14383984D01*
X14527325Y-14583984D02*
X14527325Y-14479222D01*
X14527325Y-14479222D02*
X14517801Y-14460174D01*
X14517801Y-14460174D02*
X14498753Y-14450650D01*
X14498753Y-14450650D02*
X14470182Y-14450650D01*
X14470182Y-14450650D02*
X14451134Y-14460174D01*
X14451134Y-14460174D02*
X14441610Y-14469698D01*
X14651134Y-14583984D02*
X14632087Y-14574460D01*
X14632087Y-14574460D02*
X14622563Y-14564936D01*
X14622563Y-14564936D02*
X14613039Y-14545888D01*
X14613039Y-14545888D02*
X14613039Y-14488746D01*
X14613039Y-14488746D02*
X14622563Y-14469698D01*
X14622563Y-14469698D02*
X14632087Y-14460174D01*
X14632087Y-14460174D02*
X14651134Y-14450650D01*
X14651134Y-14450650D02*
X14679706Y-14450650D01*
X14679706Y-14450650D02*
X14698753Y-14460174D01*
X14698753Y-14460174D02*
X14708277Y-14469698D01*
X14708277Y-14469698D02*
X14717801Y-14488746D01*
X14717801Y-14488746D02*
X14717801Y-14545888D01*
X14717801Y-14545888D02*
X14708277Y-14564936D01*
X14708277Y-14564936D02*
X14698753Y-14574460D01*
X14698753Y-14574460D02*
X14679706Y-14583984D01*
X14679706Y-14583984D02*
X14651134Y-14583984D01*
X14832087Y-14583984D02*
X14813039Y-14574460D01*
X14813039Y-14574460D02*
X14803515Y-14555412D01*
X14803515Y-14555412D02*
X14803515Y-14383984D01*
X14984468Y-14574460D02*
X14965420Y-14583984D01*
X14965420Y-14583984D02*
X14927325Y-14583984D01*
X14927325Y-14583984D02*
X14908277Y-14574460D01*
X14908277Y-14574460D02*
X14898753Y-14555412D01*
X14898753Y-14555412D02*
X14898753Y-14479222D01*
X14898753Y-14479222D02*
X14908277Y-14460174D01*
X14908277Y-14460174D02*
X14927325Y-14450650D01*
X14927325Y-14450650D02*
X14965420Y-14450650D01*
X14965420Y-14450650D02*
X14984468Y-14460174D01*
X14984468Y-14460174D02*
X14993991Y-14479222D01*
X14993991Y-14479222D02*
X14993991Y-14498269D01*
X14993991Y-14498269D02*
X14898753Y-14517317D01*
X15070182Y-14574460D02*
X15089230Y-14583984D01*
X15089230Y-14583984D02*
X15127325Y-14583984D01*
X15127325Y-14583984D02*
X15146372Y-14574460D01*
X15146372Y-14574460D02*
X15155896Y-14555412D01*
X15155896Y-14555412D02*
X15155896Y-14545888D01*
X15155896Y-14545888D02*
X15146372Y-14526841D01*
X15146372Y-14526841D02*
X15127325Y-14517317D01*
X15127325Y-14517317D02*
X15098753Y-14517317D01*
X15098753Y-14517317D02*
X15079706Y-14507793D01*
X15079706Y-14507793D02*
X15070182Y-14488746D01*
X15070182Y-14488746D02*
X15070182Y-14479222D01*
X15070182Y-14479222D02*
X15079706Y-14460174D01*
X15079706Y-14460174D02*
X15098753Y-14450650D01*
X15098753Y-14450650D02*
X15127325Y-14450650D01*
X15127325Y-14450650D02*
X15146372Y-14460174D01*
X15222563Y-14660174D02*
X15232087Y-14650650D01*
X15232087Y-14650650D02*
X15251134Y-14622079D01*
X15251134Y-14622079D02*
X15260658Y-14603031D01*
X15260658Y-14603031D02*
X15270182Y-14574460D01*
X15270182Y-14574460D02*
X15279706Y-14526841D01*
X15279706Y-14526841D02*
X15279706Y-14488746D01*
X15279706Y-14488746D02*
X15270182Y-14441127D01*
X15270182Y-14441127D02*
X15260658Y-14412555D01*
X15260658Y-14412555D02*
X15251134Y-14393508D01*
X15251134Y-14393508D02*
X15232087Y-14364936D01*
X15232087Y-14364936D02*
X15222563Y-14355412D01*
X15584468Y-14660174D02*
X15574944Y-14650650D01*
X15574944Y-14650650D02*
X15555896Y-14622079D01*
X15555896Y-14622079D02*
X15546372Y-14603031D01*
X15546372Y-14603031D02*
X15536849Y-14574460D01*
X15536849Y-14574460D02*
X15527325Y-14526841D01*
X15527325Y-14526841D02*
X15527325Y-14488746D01*
X15527325Y-14488746D02*
X15536849Y-14441127D01*
X15536849Y-14441127D02*
X15546372Y-14412555D01*
X15546372Y-14412555D02*
X15555896Y-14393508D01*
X15555896Y-14393508D02*
X15574944Y-14364936D01*
X15574944Y-14364936D02*
X15584468Y-14355412D01*
X15660658Y-14450650D02*
X15660658Y-14583984D01*
X15660658Y-14469698D02*
X15670182Y-14460174D01*
X15670182Y-14460174D02*
X15689230Y-14450650D01*
X15689230Y-14450650D02*
X15717801Y-14450650D01*
X15717801Y-14450650D02*
X15736849Y-14460174D01*
X15736849Y-14460174D02*
X15746372Y-14479222D01*
X15746372Y-14479222D02*
X15746372Y-14583984D01*
X15870182Y-14583984D02*
X15851134Y-14574460D01*
X15851134Y-14574460D02*
X15841611Y-14564936D01*
X15841611Y-14564936D02*
X15832087Y-14545888D01*
X15832087Y-14545888D02*
X15832087Y-14488746D01*
X15832087Y-14488746D02*
X15841611Y-14469698D01*
X15841611Y-14469698D02*
X15851134Y-14460174D01*
X15851134Y-14460174D02*
X15870182Y-14450650D01*
X15870182Y-14450650D02*
X15898753Y-14450650D01*
X15898753Y-14450650D02*
X15917801Y-14460174D01*
X15917801Y-14460174D02*
X15927325Y-14469698D01*
X15927325Y-14469698D02*
X15936849Y-14488746D01*
X15936849Y-14488746D02*
X15936849Y-14545888D01*
X15936849Y-14545888D02*
X15927325Y-14564936D01*
X15927325Y-14564936D02*
X15917801Y-14574460D01*
X15917801Y-14574460D02*
X15898753Y-14583984D01*
X15898753Y-14583984D02*
X15870182Y-14583984D01*
X15993992Y-14450650D02*
X16070182Y-14450650D01*
X16022563Y-14383984D02*
X16022563Y-14555412D01*
X16022563Y-14555412D02*
X16032087Y-14574460D01*
X16032087Y-14574460D02*
X16051134Y-14583984D01*
X16051134Y-14583984D02*
X16070182Y-14583984D01*
X16289230Y-14450650D02*
X16289230Y-14650650D01*
X16289230Y-14460174D02*
X16308277Y-14450650D01*
X16308277Y-14450650D02*
X16346373Y-14450650D01*
X16346373Y-14450650D02*
X16365420Y-14460174D01*
X16365420Y-14460174D02*
X16374944Y-14469698D01*
X16374944Y-14469698D02*
X16384468Y-14488746D01*
X16384468Y-14488746D02*
X16384468Y-14545888D01*
X16384468Y-14545888D02*
X16374944Y-14564936D01*
X16374944Y-14564936D02*
X16365420Y-14574460D01*
X16365420Y-14574460D02*
X16346373Y-14583984D01*
X16346373Y-14583984D02*
X16308277Y-14583984D01*
X16308277Y-14583984D02*
X16289230Y-14574460D01*
X16498753Y-14583984D02*
X16479706Y-14574460D01*
X16479706Y-14574460D02*
X16470182Y-14555412D01*
X16470182Y-14555412D02*
X16470182Y-14383984D01*
X16660658Y-14583984D02*
X16660658Y-14479222D01*
X16660658Y-14479222D02*
X16651134Y-14460174D01*
X16651134Y-14460174D02*
X16632087Y-14450650D01*
X16632087Y-14450650D02*
X16593992Y-14450650D01*
X16593992Y-14450650D02*
X16574944Y-14460174D01*
X16660658Y-14574460D02*
X16641611Y-14583984D01*
X16641611Y-14583984D02*
X16593992Y-14583984D01*
X16593992Y-14583984D02*
X16574944Y-14574460D01*
X16574944Y-14574460D02*
X16565420Y-14555412D01*
X16565420Y-14555412D02*
X16565420Y-14536365D01*
X16565420Y-14536365D02*
X16574944Y-14517317D01*
X16574944Y-14517317D02*
X16593992Y-14507793D01*
X16593992Y-14507793D02*
X16641611Y-14507793D01*
X16641611Y-14507793D02*
X16660658Y-14498269D01*
X16727325Y-14450650D02*
X16803515Y-14450650D01*
X16755896Y-14383984D02*
X16755896Y-14555412D01*
X16755896Y-14555412D02*
X16765420Y-14574460D01*
X16765420Y-14574460D02*
X16784468Y-14583984D01*
X16784468Y-14583984D02*
X16803515Y-14583984D01*
X16946373Y-14574460D02*
X16927325Y-14583984D01*
X16927325Y-14583984D02*
X16889230Y-14583984D01*
X16889230Y-14583984D02*
X16870182Y-14574460D01*
X16870182Y-14574460D02*
X16860658Y-14555412D01*
X16860658Y-14555412D02*
X16860658Y-14479222D01*
X16860658Y-14479222D02*
X16870182Y-14460174D01*
X16870182Y-14460174D02*
X16889230Y-14450650D01*
X16889230Y-14450650D02*
X16927325Y-14450650D01*
X16927325Y-14450650D02*
X16946373Y-14460174D01*
X16946373Y-14460174D02*
X16955896Y-14479222D01*
X16955896Y-14479222D02*
X16955896Y-14498269D01*
X16955896Y-14498269D02*
X16860658Y-14517317D01*
X17127325Y-14583984D02*
X17127325Y-14383984D01*
X17127325Y-14574460D02*
X17108277Y-14583984D01*
X17108277Y-14583984D02*
X17070182Y-14583984D01*
X17070182Y-14583984D02*
X17051135Y-14574460D01*
X17051135Y-14574460D02*
X17041611Y-14564936D01*
X17041611Y-14564936D02*
X17032087Y-14545888D01*
X17032087Y-14545888D02*
X17032087Y-14488746D01*
X17032087Y-14488746D02*
X17041611Y-14469698D01*
X17041611Y-14469698D02*
X17051135Y-14460174D01*
X17051135Y-14460174D02*
X17070182Y-14450650D01*
X17070182Y-14450650D02*
X17108277Y-14450650D01*
X17108277Y-14450650D02*
X17127325Y-14460174D01*
X17203516Y-14660174D02*
X17213039Y-14650650D01*
X17213039Y-14650650D02*
X17232087Y-14622079D01*
X17232087Y-14622079D02*
X17241611Y-14603031D01*
X17241611Y-14603031D02*
X17251135Y-14574460D01*
X17251135Y-14574460D02*
X17260658Y-14526841D01*
X17260658Y-14526841D02*
X17260658Y-14488746D01*
X17260658Y-14488746D02*
X17251135Y-14441127D01*
X17251135Y-14441127D02*
X17241611Y-14412555D01*
X17241611Y-14412555D02*
X17232087Y-14393508D01*
X17232087Y-14393508D02*
X17213039Y-14364936D01*
X17213039Y-14364936D02*
X17203516Y-14355412D01*
M02*
